<svg xmlns="http://www.w3.org/2000/svg" xmlns:xlink="http://www.w3.org/1999/xlink" xmlns:lucid="lucid" width="1642.1" height="1494.9"><g transform="translate(1141 -520.0997498436523)" lucid:page-tab-id="HWEp-vi-RSFO"><path d="M-1500 500h2500v2000h-2500z" fill="#fff"/><path d="M-489.95 521.1h360v444h-360z" stroke="#282c33" stroke-width="2" fill="#fff"/><path d="M-489.95 564.26h360m-360 336.22h360" stroke="#282c33" stroke-width="2" fill="none"/><use xlink:href="#a" transform="matrix(1,0,0,1,-481.95153220762995,529.0997498436523) translate(146.95822482638889 22.16460503472222)"/><use xlink:href="#b" transform="matrix(1,0,0,1,-477.95153220762995,572.2566508853189) translate(0 32.88009982638892)"/><use xlink:href="#c" transform="matrix(1,0,0,1,-477.95153220762995,572.2566508853189) translate(16.63606770833333 32.88009982638892)"/><use xlink:href="#d" transform="matrix(1,0,0,1,-477.95153220762995,572.2566508853189) translate(48.59309895833332 32.88009982638892)"/><use xlink:href="#e" transform="matrix(1,0,0,1,-477.95153220762995,572.2566508853189) translate(100.82465277777776 32.88009982638892)"/><use xlink:href="#f" transform="matrix(1,0,0,1,-477.95153220762995,572.2566508853189) translate(0 60.03700086805558)"/><use xlink:href="#g" transform="matrix(1,0,0,1,-477.95153220762995,572.2566508853189) translate(126.74316406249996 60.03700086805558)"/><use xlink:href="#h" transform="matrix(1,0,0,1,-477.95153220762995,572.2566508853189) translate(0 87.19390190972223)"/><use xlink:href="#g" transform="matrix(1,0,0,1,-477.95153220762995,572.2566508853189) translate(122.58962673611107 87.19390190972223)"/><use xlink:href="#i" transform="matrix(1,0,0,1,-477.95153220762995,572.2566508853189) translate(0 114.35080295138891)"/><use xlink:href="#j" transform="matrix(1,0,0,1,-477.95153220762995,572.2566508853189) translate(126.24999999999999 114.35080295138891)"/><use xlink:href="#k" transform="matrix(1,0,0,1,-477.95153220762995,572.2566508853189) translate(0 141.50770399305557)"/><use xlink:href="#j" transform="matrix(1,0,0,1,-477.95153220762995,572.2566508853189) translate(132.80360243055551 141.50770399305557)"/><use xlink:href="#l" transform="matrix(1,0,0,1,-477.95153220762995,572.2566508853189) translate(0 168.66460503472223)"/><use xlink:href="#g" transform="matrix(1,0,0,1,-477.95153220762995,572.2566508853189) translate(79.32269965277776 168.66460503472223)"/><use xlink:href="#m" transform="matrix(1,0,0,1,-477.95153220762995,572.2566508853189) translate(0 195.82150607638889)"/><use xlink:href="#g" transform="matrix(1,0,0,1,-477.95153220762995,572.2566508853189) translate(126.60069444444441 195.82150607638889)"/><use xlink:href="#n" transform="matrix(1,0,0,1,-477.95153220762995,572.2566508853189) translate(0 222.97840711805554)"/><use xlink:href="#n" transform="matrix(1,0,0,1,-477.95153220762995,572.2566508853189) translate(0 250.1353081597222)"/><use xlink:href="#n" transform="matrix(1,0,0,1,-477.95153220762995,572.2566508853189) translate(0 277.29220920138886)"/><use xlink:href="#o" transform="matrix(1,0,0,1,-477.95153220762995,572.2566508853189) translate(0 304.44911024305554)"/><path d="M140.1 1160h360v227h-360z" stroke="#282c33" stroke-width="2" fill="#fff"/><path d="M140.1 1203.16h360m-360 64.65h360" stroke="#282c33" stroke-width="2" fill="none"/><use xlink:href="#p" transform="matrix(1,0,0,1,148.0969355847401,1168) translate(134.74967447916669 22.16460503472222)"/><use xlink:href="#q" transform="matrix(1,0,0,1,152.0969355847401,1211.1569010416667) translate(0 32.66460503472222)"/><use xlink:href="#r" transform="matrix(1,0,0,1,152.0969355847401,1211.1569010416667) translate(122.63346354166664 32.66460503472222)"/><use xlink:href="#s" transform="matrix(1,0,0,1,152.0969355847401,1275.8138020833335) translate(0 32.50770399305556)"/><use xlink:href="#t" transform="matrix(1,0,0,1,152.0969355847401,1275.8138020833335) translate(0 59.66460503472222)"/><use xlink:href="#u" transform="matrix(1,0,0,1,152.0969355847401,1275.8138020833335) translate(0 86.82150607638889)"/><path d="M-489.95 1160h360v227h-360z" stroke="#282c33" stroke-width="2" fill="#fff"/><path d="M-489.95 1203.16h360m-360 64.65h360" stroke="#282c33" stroke-width="2" fill="none"/><use xlink:href="#v" transform="matrix(1,0,0,1,-481.95153220762995,1168) translate(138.20730251736111 22.16460503472222)"/><use xlink:href="#w" transform="matrix(1,0,0,1,-477.95153220762995,1275.8138020833335) translate(0 32.50770399305556)"/><use xlink:href="#x" transform="matrix(1,0,0,1,-477.95153220762995,1275.8138020833335) translate(0 59.66460503472222)"/><use xlink:href="#y" transform="matrix(1,0,0,1,-477.95153220762995,1275.8138020833335) translate(0 86.82150607638889)"/><path d="M-1140 1160h360v227h-360z" stroke="#282c33" stroke-width="2" fill="#fff"/><path d="M-1140 1203.16h360m-360 64.65h360" stroke="#282c33" stroke-width="2" fill="none"/><use xlink:href="#z" transform="matrix(1,0,0,1,-1132,1168) translate(127.85085720486113 22.16460503472222)"/><use xlink:href="#A" transform="matrix(1,0,0,1,-1128,1211.1569010416667) translate(0 32.66460503472222)"/><use xlink:href="#r" transform="matrix(1,0,0,1,-1128,1211.1569010416667) translate(115.72916666666664 32.66460503472222)"/><use xlink:href="#B" transform="matrix(1,0,0,1,-1128,1275.8138020833335) translate(0 32.50770399305556)"/><use xlink:href="#C" transform="matrix(1,0,0,1,-1128,1275.8138020833335) translate(0 59.66460503472222)"/><use xlink:href="#o" transform="matrix(1,0,0,1,-1128,1275.8138020833335) translate(0 86.82150607638889)"/><path d="M140.1 1760h360v254h-360z" stroke="#282c33" stroke-width="2" fill="#fff"/><path d="M140.1 1803.16h360m-360 146.13h360" stroke="#282c33" stroke-width="2" fill="none"/><use xlink:href="#D" transform="matrix(1,0,0,1,148.0969355847401,1768) translate(130.33311631944446 22.16460503472222)"/><use xlink:href="#E" transform="matrix(1,0,0,1,152.0969355847401,1811.1569010416667) translate(0 32.92925347222222)"/><use xlink:href="#d" transform="matrix(1,0,0,1,152.0969355847401,1811.1569010416667) translate(123.6526692708333 32.92925347222222)"/><use xlink:href="#e" transform="matrix(1,0,0,1,152.0969355847401,1811.1569010416667) translate(175.88422309027774 32.92925347222222)"/><use xlink:href="#F" transform="matrix(1,0,0,1,152.0969355847401,1811.1569010416667) translate(0 60.08615451388888)"/><use xlink:href="#g" transform="matrix(1,0,0,1,152.0969355847401,1811.1569010416667) translate(61.744140624999986 60.08615451388888)"/><use xlink:href="#G" transform="matrix(1,0,0,1,152.0969355847401,1811.1569010416667) translate(0 87.24305555555554)"/><use xlink:href="#g" transform="matrix(1,0,0,1,152.0969355847401,1811.1569010416667) translate(142.0750868055555 87.24305555555554)"/><use xlink:href="#H" transform="matrix(1,0,0,1,152.0969355847401,1811.1569010416667) translate(0 114.3999565972222)"/><use xlink:href="#I" transform="matrix(1,0,0,1,152.0969355847401,1811.1569010416667) translate(116.5730251736111 114.3999565972222)"/><path d="M-489.95 1760h360v254h-360z" stroke="#282c33" stroke-width="2" fill="#fff"/><path d="M-489.95 1803.16h360m-360 146.13h360" stroke="#282c33" stroke-width="2" fill="none"/><use xlink:href="#J" transform="matrix(1,0,0,1,-481.95153220762995,1768) translate(115.74641927083334 22.16460503472222)"/><use xlink:href="#K" transform="matrix(1,0,0,1,-477.95153220762995,1811.1569010416667) translate(0 32.92925347222222)"/><use xlink:href="#L" transform="matrix(1,0,0,1,-477.95153220762995,1811.1569010416667) translate(42.28059895833333 32.92925347222222)"/><use xlink:href="#E" transform="matrix(1,0,0,1,-477.95153220762995,1811.1569010416667) translate(0 60.08615451388888)"/><use xlink:href="#M" transform="matrix(1,0,0,1,-477.95153220762995,1811.1569010416667) translate(123.6526692708333 60.08615451388888)"/><use xlink:href="#N" transform="matrix(1,0,0,1,-477.95153220762995,1811.1569010416667) translate(192.9696180555555 60.08615451388888)"/><use xlink:href="#O" transform="matrix(1,0,0,1,-477.95153220762995,1811.1569010416667) translate(0 87.24305555555554)"/><use xlink:href="#M" transform="matrix(1,0,0,1,-477.95153220762995,1811.1569010416667) translate(130.90766059027774 87.24305555555554)"/><use xlink:href="#N" transform="matrix(1,0,0,1,-477.95153220762995,1811.1569010416667) translate(200.22460937499994 87.24305555555554)"/><use xlink:href="#H" transform="matrix(1,0,0,1,-477.95153220762995,1811.1569010416667) translate(0 114.3999565972222)"/><use xlink:href="#I" transform="matrix(1,0,0,1,-477.95153220762995,1811.1569010416667) translate(116.5730251736111 114.3999565972222)"/><path d="M-960 1158v-83.45a12 12 0 0 1 12-12h626.05a12 12 0 0 0 12-12V984.6" stroke="#333" stroke-width="2" fill="none"/><path d="M-959.02 1159H-961v-1.03h1.96z" stroke="#333" stroke-width=".05" fill="#333"/><path d="M-309.95 969.34l4.63 14.26h-9.27z" stroke="#333" stroke-width="2" fill="#fff"/><path d="M-309.95 1158V984.6" stroke="#333" stroke-width="2" fill="none"/><path d="M-308.98 1159h-1.95v-1.03h1.95z" stroke="#333" stroke-width=".05" fill="#333"/><path d="M-309.95 969.34l4.63 14.26h-9.27z" stroke="#333" stroke-width="2" fill="#fff"/><path d="M320.1 1158v-83.45a12 12 0 0 0-12-12h-606.05a12 12 0 0 1-12-12V984.6" stroke="#333" stroke-width="2" fill="none"/><path d="M321.07 1159h-1.95v-1.03h1.95z" stroke="#333" stroke-width=".05" fill="#333"/><path d="M-309.95 969.34l4.63 14.26h-9.27z" stroke="#333" stroke-width="2" fill="#fff"/><path d="M-960 1389v486a12 12 0 0 0 12 12h456.05" stroke="#333" stroke-width="2" fill="none"/><path d="M-959.02 1389.03H-961V1388h1.96zM-490.95 1887.97h-1.03v-1.94h1.03z" stroke="#333" stroke-width=".05" fill="#333"/><g><use xlink:href="#P" transform="matrix(1,0,0,1,-974.808798828125,1387.872626953125) translate(0 16.216875)"/></g><g><use xlink:href="#Q" transform="matrix(1,0,0,1,-515.3716640435672,1862.7452539062501) translate(0 16.216875)"/></g><path d="M320.1 1388.5v370" stroke="#333" fill="none"/><path d="M320.57 1388.5h-.95v-.5h.95zM320.57 1759h-.95v-.5h.95z" stroke="#333" stroke-width=".05" fill="#333"/><g><use xlink:href="#P" transform="matrix(1,0,0,1,305.28813675661513,1387.872626953125) translate(0 16.216875)"/></g><g><use xlink:href="#R" transform="matrix(1,0,0,1,328.0969355847401,1738.8726269531248) translate(0 16.216875)"/></g><path d="M138.6 1887h-267.05" stroke="#333" fill="none"/><path d="M139.1 1887.47h-.52v-.94h.52zM-128.44 1887.47h-.5v-.94h.5z" stroke="#333" stroke-width=".05" fill="#333"/><g><use xlink:href="#P" transform="matrix(1,0,0,1,124.70584576723193,1862.7452539062501) translate(0 16.216875)"/></g><g><use xlink:href="#S" transform="matrix(1,0,0,1,-129.03503806700516,1891) translate(0 16.216875)"/></g><path d="M-127.95 1273.5H138.1" stroke="#333" stroke-width="2" fill="none"/><path d="M-127.93 1274.47h-1.02v-1.94h1.02zM139.1 1274.47h-1.03v-1.94h1.03z" stroke="#333" stroke-width=".05" fill="#333"/><g><use xlink:href="#R" transform="matrix(1,0,0,1,130.90376175661515,1249.2452539062501) translate(0 16.216875)"/></g><path d="M-491.95 1273.5H-778" stroke="#333" stroke-width="2" fill="none"/><path d="M-490.95 1274.47h-1.03v-1.94h1.03zM-777.97 1274.47H-779v-1.94h1.03z" stroke="#333" stroke-width=".05" fill="#333"/><g><use xlink:href="#R" transform="matrix(1,0,0,1,-779.193173828125,1277.5) translate(0 16.216875)"/></g><path d="M-780 1220h40v40h-40z" fill="none"/><g><use xlink:href="#T" transform="matrix(1,0,0,1,-780,1220) translate(14.3779296875 28.16460503472222)"/></g><path d="M240 1520h60v60h-60z" fill="none"/><g><use xlink:href="#U" transform="matrix(1,0,0,1,240,1520) translate(1.15234375 34.85026041666667)"/></g><path d="M-40 1220H69.95v60H-40z" fill="none"/><g><use xlink:href="#V" transform="matrix(1,0,0,1,-40,1220) translate(9.300130208333343 34.85026041666667)"/></g><path d="M-669.95 1220H-560v60h-109.95z" fill="none"/><g><use xlink:href="#V" transform="matrix(1,0,0,1,-669.9515322076622,1220) translate(9.300130208333343 34.85026041666667)"/></g><defs><path fill="#282c33" d="M763 24c-353 0-583-224-583-531v-983h190v968c0 214 149 370 393 370 243 0 391-156 391-370v-968h190v983c0 307-230 531-581 531" id="W"/><path fill="#282c33" d="M538 24C308 24 148-78 108-271l171-41c32 123 123 178 257 178 156 0 256-77 256-169 0-77-54-128-164-154l-186-44c-203-48-300-148-300-305 0-192 176-326 414-326 230 0 351 112 402 269l-163 42c-31-80-94-158-238-158-133 0-233 69-233 162 0 83 57 129 188 160l169 40c203 48 298 149 298 302 0 196-179 339-441 339" id="X"/><path fill="#282c33" d="M628 24c-324 0-524-230-524-574 0-343 198-582 503-582 237 0 487 146 487 559v75H286c9 234 145 362 343 362 132 0 231-58 273-172l174 48C1024-91 857 24 628 24zM287-650h624c-17-190-120-322-304-322-192 0-309 151-320 322" id="Y"/><path fill="#282c33" d="M158 0v-1118h174v172h12c41-113 157-188 290-188 26 0 70 2 91 3v181c-11-2-60-10-108-10-161 0-279 109-279 260V0H158" id="Z"/><g id="a"><use transform="matrix(0.010959201388888886,0,0,0.010959201388888886,0,0)" xlink:href="#W"/><use transform="matrix(0.010959201388888886,0,0,0.010959201388888886,16.701822916666664,0)" xlink:href="#X"/><use transform="matrix(0.010959201388888886,0,0,0.010959201388888886,28.54871961805555,0)" xlink:href="#Y"/><use transform="matrix(0.010959201388888886,0,0,0.010959201388888886,41.63400607638888,0)" xlink:href="#Z"/></g><path fill="#282c33" d="M798-719v166H144v-166h654" id="aa"/><use transform="matrix(0.010959201388888886,0,0,0.010959201388888886,0,0)" xlink:href="#aa" id="b"/><path fill="#282c33" d="M158 0v-1118h180V0H158zm91-1301c-68 0-125-53-125-119s57-119 125-119c69 0 126 53 126 119s-57 119-126 119" id="ab"/><path fill="#282c33" d="M577 24c-279 0-473-224-473-580 0-354 195-576 474-576 218 0 287 134 324 193h14v-551h180V0H922v-173h-20C865-111 790 24 577 24zm27-161c203 0 314-172 314-421 0-247-108-413-314-413-212 0-317 181-317 413 0 235 108 421 317 421" id="ac"/><path fill="#282c33" d="M295 13c-75 0-135-60-135-135s60-135 135-135 135 60 135 135S370 13 295 13zm0-809c-75 0-135-60-135-135s60-135 135-135 135 60 135 135-60 135-135 135" id="ad"/><g id="c"><use transform="matrix(0.010959201388888886,0,0,0.010959201388888886,0,0)" xlink:href="#ab"/><use transform="matrix(0.010959201388888886,0,0,0.010959201388888886,5.4357638888888875,0)" xlink:href="#ac"/><use transform="matrix(0.010959201388888886,0,0,0.010959201388888886,19.17860243055555,0)" xlink:href="#ad"/></g><path fill="#282c33" d="M338-1490V0H158v-1490h180" id="ae"/><path fill="#282c33" d="M613 24c-304 0-509-231-509-576 0-350 205-580 509-580 305 0 511 230 511 580 0 345-206 576-511 576zm0-161c226 0 329-195 329-415 0-222-103-419-329-419-223 0-326 196-326 419 0 220 103 415 326 415" id="af"/><path fill="#282c33" d="M338-670V0H158v-1118h173l1 207c72-158 192-221 342-221 226 0 378 139 378 422V0H872v-695c0-172-96-275-252-275-161 0-282 109-282 300" id="ag"/><path fill="#282c33" d="M611 442c-248 0-391-105-460-228l146-94c47 65 117 165 314 165 178 0 307-82 307-266v-224h-17C863-141 792-18 576-18c-268 0-472-195-472-546 0-346 197-568 476-568 216 0 288 133 326 193h17v-179h175V29c0 289-215 413-487 413zm-5-620c203 0 314-146 314-390 0-237-108-403-314-403-213 0-319 180-319 403 0 230 109 390 319 390" id="ah"/><g id="d"><use transform="matrix(0.010959201388888886,0,0,0.010959201388888886,0,0)" xlink:href="#ae"/><use transform="matrix(0.010959201388888886,0,0,0.010959201388888886,5.4357638888888875,0)" xlink:href="#af"/><use transform="matrix(0.010959201388888886,0,0,0.010959201388888886,18.89366319444444,0)" xlink:href="#ag"/><use transform="matrix(0.010959201388888886,0,0,0.010959201388888886,32.15429687499999,0)" xlink:href="#ah"/></g><path fill="#282c33" d="M218-607c0-325 108-727 258-974h175c-155 315-250 682-250 974 0 265 78 531 250 886H476C306-10 218-315 218-607" id="ai"/><path fill="#282c33" d="M180 0v-1490h510c348 0 508 209 508 474 0 266-160 477-507 477H370V0H180zm190-706h312c236 0 327-133 327-310 0-176-91-307-329-307H370v617" id="aj"/><path fill="#282c33" d="M180 0v-1490h190c0 262 1 526-3 784 217-279 467-523 702-784h249L716-845 1319 0h-225L585-716 370-489V0H180" id="ak"/><path fill="#282c33" d="M96 279C273-86 346-350 346-607c0-292-95-659-250-974h175c150 246 258 650 258 974 0 297-91 602-258 886H96" id="al"/><g id="e"><use transform="matrix(0.010959201388888886,0,0,0.010959201388888886,0,0)" xlink:href="#ai"/><use transform="matrix(0.010959201388888886,0,0,0.010959201388888886,8.186523437499998,0)" xlink:href="#aj"/><use transform="matrix(0.010959201388888886,0,0,0.010959201388888886,22.52115885416666,0)" xlink:href="#ak"/><use transform="matrix(0.010959201388888886,0,0,0.010959201388888886,37.60101996527777,0)" xlink:href="#al"/></g><path fill="#282c33" d="M678-1118v154H420V0H240v-964H20v-154h220v-149c0-194 155-293 318-293 85 0 141 18 168 30l-50 154c-19-6-47-17-97-17-111 0-159 58-159 166v109h258" id="am"/><path fill="#282c33" d="M598-1118v154H368v674c0 100 37 144 132 144 23 0 62-6 92-12L629-6c-37 13-88 20-134 20-193 0-307-107-307-290v-688H20v-154h168v-266h180v266h230" id="an"/><path fill="#282c33" d="M180 0v-1490h224l606 953c40 63 108 177 176 312-27-437-7-821-13-1265h190V0h-226C860-448 622-778 356-1262c27 476 11 792 15 1262H180" id="ao"/><path fill="#282c33" d="M471 26C259 26 90-98 90-318c0-256 228-303 435-329 202-27 287-16 287-108 0-139-79-219-234-219-161 0-248 86-283 164l-173-57c86-203 278-265 451-265 150 0 419 46 419 395V0H815v-152h-12C765-73 660 26 471 26zm31-159c199 0 310-134 310-271v-155c-30 35-226 55-295 64-131 17-246 59-246 186 0 116 97 176 231 176" id="ap"/><path fill="#282c33" d="M158 0v-1118h175l1 205c55-151 181-225 313-225 147 0 245 90 285 228 53-141 190-228 352-228 194 0 352 125 352 384V0h-181v-749c0-161-105-225-225-225-151 0-243 103-243 244V0H807v-767c0-124-93-207-219-207-131 0-250 92-250 270V0H158" id="aq"/><g id="f"><use transform="matrix(0.010959201388888886,0,0,0.010959201388888886,0,0)" xlink:href="#aa"/><use transform="matrix(0.010959201388888886,0,0,0.010959201388888886,10.32356770833333,0)" xlink:href="#am"/><use transform="matrix(0.010959201388888886,0,0,0.010959201388888886,18.630642361111107,0)" xlink:href="#ab"/><use transform="matrix(0.010959201388888886,0,0,0.010959201388888886,24.066406249999993,0)" xlink:href="#Z"/><use transform="matrix(0.010959201388888886,0,0,0.010959201388888886,32.51595052083333,0)" xlink:href="#X"/><use transform="matrix(0.010959201388888886,0,0,0.010959201388888886,44.362847222222214,0)" xlink:href="#an"/><use transform="matrix(0.010959201388888886,0,0,0.010959201388888886,51.70551215277778,0)" xlink:href="#ao"/><use transform="matrix(0.010959201388888886,0,0,0.010959201388888886,68.61555989583331,0)" xlink:href="#ap"/><use transform="matrix(0.010959201388888886,0,0,0.010959201388888886,81.21864149305553,0)" xlink:href="#aq"/><use transform="matrix(0.010959201388888886,0,0,0.010959201388888886,100.87944878472219,0)" xlink:href="#Y"/><use transform="matrix(0.010959201388888886,0,0,0.010959201388888886,113.96473524305551,0)" xlink:href="#ad"/></g><path fill="#282c33" d="M657 26c-323 0-524-166-541-416h195c15 169 171 246 346 246 202 0 356-106 356-265 5-203-294-238-475-293-239-73-380-191-380-389 0-252 224-419 512-419 294 0 499 171 508 396H992c-17-145-151-228-328-228-193 0-321 102-321 242 0 156 175 211 284 241l149 41c160 44 422 134 422 412 0 244-197 432-541 432" id="ar"/><g id="g"><use transform="matrix(0.010959201388888886,0,0,0.010959201388888886,0,0)" xlink:href="#ar"/><use transform="matrix(0.010959201388888886,0,0,0.010959201388888886,14.400390624999996,0)" xlink:href="#an"/><use transform="matrix(0.010959201388888886,0,0,0.010959201388888886,21.74305555555555,0)" xlink:href="#Z"/><use transform="matrix(0.010959201388888886,0,0,0.010959201388888886,30.543294270833325,0)" xlink:href="#ab"/><use transform="matrix(0.010959201388888886,0,0,0.010959201388888886,35.979058159722214,0)" xlink:href="#ag"/><use transform="matrix(0.010959201388888886,0,0,0.010959201388888886,49.239691840277764,0)" xlink:href="#ah"/></g><g id="h"><use transform="matrix(0.010959201388888886,0,0,0.010959201388888886,0,0)" xlink:href="#aa"/><use transform="matrix(0.010959201388888886,0,0,0.010959201388888886,10.32356770833333,0)" xlink:href="#ae"/><use transform="matrix(0.010959201388888886,0,0,0.010959201388888886,15.759331597222218,0)" xlink:href="#ap"/><use transform="matrix(0.010959201388888886,0,0,0.010959201388888886,28.36241319444444,0)" xlink:href="#X"/><use transform="matrix(0.010959201388888886,0,0,0.010959201388888886,40.20930989583332,0)" xlink:href="#an"/><use transform="matrix(0.010959201388888886,0,0,0.010959201388888886,47.55197482638887,0)" xlink:href="#ao"/><use transform="matrix(0.010959201388888886,0,0,0.010959201388888886,64.46202256944443,0)" xlink:href="#ap"/><use transform="matrix(0.010959201388888886,0,0,0.010959201388888886,77.06510416666664,0)" xlink:href="#aq"/><use transform="matrix(0.010959201388888886,0,0,0.010959201388888886,96.72591145833329,0)" xlink:href="#Y"/><use transform="matrix(0.010959201388888886,0,0,0.010959201388888886,109.81119791666661,0)" xlink:href="#ad"/></g><path fill="#282c33" d="M613 24c-304 0-509-231-509-576 0-350 205-580 509-580 216 0 392 114 453 309l-173 49c-33-115-133-197-280-197-223 0-326 196-326 419 0 220 103 415 326 415 150 0 252-85 285-206l172 49C1010-95 832 24 613 24" id="as"/><path fill="#282c33" d="M52 0l541-1490h220L1361 0h-200l-149-416H398L254 0H52zm404-582h497c-103-290-145-390-251-756-108 377-145 460-246 756" id="at"/><g id="i"><use transform="matrix(0.010959201388888886,0,0,0.010959201388888886,0,0)" xlink:href="#aa"/><use transform="matrix(0.010959201388888886,0,0,0.010959201388888886,10.32356770833333,0)" xlink:href="#as"/><use transform="matrix(0.010959201388888886,0,0,0.010959201388888886,23.14583333333333,0)" xlink:href="#Z"/><use transform="matrix(0.010959201388888886,0,0,0.010959201388888886,31.222764756944436,0)" xlink:href="#Y"/><use transform="matrix(0.010959201388888886,0,0,0.010959201388888886,44.52723524305555,0)" xlink:href="#ap"/><use transform="matrix(0.010959201388888886,0,0,0.010959201388888886,57.13031684027777,0)" xlink:href="#an"/><use transform="matrix(0.010959201388888886,0,0,0.010959201388888886,64.25379774305554,0)" xlink:href="#Y"/><use transform="matrix(0.010959201388888886,0,0,0.010959201388888886,77.33908420138887,0)" xlink:href="#ac"/><use transform="matrix(0.010959201388888886,0,0,0.010959201388888886,91.08192274305553,0)" xlink:href="#at"/><use transform="matrix(0.010959201388888886,0,0,0.010959201388888886,106.12890625,0)" xlink:href="#an"/><use transform="matrix(0.010959201388888886,0,0,0.010959201388888886,113.47157118055554,0)" xlink:href="#ad"/></g><path fill="#282c33" d="M180 0v-1490h190v1322h690V0H180" id="au"/><path fill="#282c33" d="M645 0H180v-1490h484c435 0 692 280 692 742 0 466-257 748-711 748zM370-168h263c363 0 539-218 539-580 0-358-176-574-521-574H370v1154" id="av"/><g id="j"><use transform="matrix(0.010959201388888886,0,0,0.010959201388888886,0,0)" xlink:href="#au"/><use transform="matrix(0.010959201388888886,0,0,0.010959201388888886,12.69075520833333,0)" xlink:href="#af"/><use transform="matrix(0.010959201388888886,0,0,0.010959201388888886,26.148654513888882,0)" xlink:href="#as"/><use transform="matrix(0.010959201388888886,0,0,0.010959201388888886,39.19010416666666,0)" xlink:href="#ap"/><use transform="matrix(0.010959201388888886,0,0,0.010959201388888886,51.79318576388888,0)" xlink:href="#ae"/><use transform="matrix(0.010959201388888886,0,0,0.010959201388888886,57.228949652777764,0)" xlink:href="#av"/><use transform="matrix(0.010959201388888886,0,0,0.010959201388888886,73.42664930555554,0)" xlink:href="#ap"/><use transform="matrix(0.010959201388888886,0,0,0.010959201388888886,86.02973090277776,0)" xlink:href="#an"/><use transform="matrix(0.010959201388888886,0,0,0.010959201388888886,93.15321180555553,0)" xlink:href="#Y"/></g><path fill="#282c33" d="M537 14c-226 0-379-139-379-422v-710h180v695c0 172 97 275 253 275 160 0 281-109 281-300v-670h181V0H879v-209C806-46 684 14 537 14" id="aw"/><path fill="#282c33" d="M158 418v-1536h174v179h20c37-59 106-193 324-193 279 0 474 222 474 576 0 356-194 580-473 580-213 0-288-135-325-197h-14v591H158zm492-555c209 0 317-186 317-421 0-232-105-413-317-413-206 0-314 166-314 413 0 249 111 421 314 421" id="ax"/><g id="k"><use transform="matrix(0.010959201388888886,0,0,0.010959201388888886,0,0)" xlink:href="#aa"/><use transform="matrix(0.010959201388888886,0,0,0.010959201388888886,10.32356770833333,0)" xlink:href="#aw"/><use transform="matrix(0.010959201388888886,0,0,0.010959201388888886,23.59516059027777,0)" xlink:href="#ax"/><use transform="matrix(0.010959201388888886,0,0,0.010959201388888886,37.337999131944436,0)" xlink:href="#ac"/><use transform="matrix(0.010959201388888886,0,0,0.010959201388888886,51.0808376736111,0)" xlink:href="#ap"/><use transform="matrix(0.010959201388888886,0,0,0.010959201388888886,63.68391927083332,0)" xlink:href="#an"/><use transform="matrix(0.010959201388888886,0,0,0.010959201388888886,70.8074001736111,0)" xlink:href="#Y"/><use transform="matrix(0.010959201388888886,0,0,0.010959201388888886,83.89268663194443,0)" xlink:href="#ac"/><use transform="matrix(0.010959201388888886,0,0,0.010959201388888886,97.63552517361109,0)" xlink:href="#at"/><use transform="matrix(0.010959201388888886,0,0,0.010959201388888886,112.68250868055553,0)" xlink:href="#an"/><use transform="matrix(0.010959201388888886,0,0,0.010959201388888886,120.02517361111109,0)" xlink:href="#ad"/></g><g id="l"><use transform="matrix(0.010959201388888886,0,0,0.010959201388888886,0,0)" xlink:href="#aa"/><use transform="matrix(0.010959201388888886,0,0,0.010959201388888886,10.32356770833333,0)" xlink:href="#Y"/><use transform="matrix(0.010959201388888886,0,0,0.010959201388888886,23.40885416666666,0)" xlink:href="#aq"/><use transform="matrix(0.010959201388888886,0,0,0.010959201388888886,43.06966145833332,0)" xlink:href="#ap"/><use transform="matrix(0.010959201388888886,0,0,0.010959201388888886,55.67274305555554,0)" xlink:href="#ab"/><use transform="matrix(0.010959201388888886,0,0,0.010959201388888886,61.10850694444443,0)" xlink:href="#ae"/><use transform="matrix(0.010959201388888886,0,0,0.010959201388888886,66.54427083333331,0)" xlink:href="#ad"/></g><path fill="#282c33" d="M409 0L70-1118h191c89 329 165 560 243 925 75-353 154-601 240-925h192c85 325 161 564 235 922 77-354 157-598 244-922h191L1267 0h-179c-86-307-176-590-250-913C763-588 675-308 588 0H409" id="ay"/><g id="m"><use transform="matrix(0.010959201388888886,0,0,0.010959201388888886,0,0)" xlink:href="#aa"/><use transform="matrix(0.010959201388888886,0,0,0.010959201388888886,10.32356770833333,0)" xlink:href="#ax"/><use transform="matrix(0.010959201388888886,0,0,0.010959201388888886,24.28559027777777,0)" xlink:href="#ap"/><use transform="matrix(0.010959201388888886,0,0,0.010959201388888886,36.88867187499999,0)" xlink:href="#X"/><use transform="matrix(0.010959201388888886,0,0,0.010959201388888886,48.73556857638888,0)" xlink:href="#X"/><use transform="matrix(0.010959201388888886,0,0,0.010959201388888886,60.582465277777764,0)" xlink:href="#ay"/><use transform="matrix(0.010959201388888886,0,0,0.010959201388888886,78.54459635416666,0)" xlink:href="#af"/><use transform="matrix(0.010959201388888886,0,0,0.010959201388888886,92.00249565972221,0)" xlink:href="#Z"/><use transform="matrix(0.010959201388888886,0,0,0.010959201388888886,100.07942708333331,0)" xlink:href="#ac"/><use transform="matrix(0.010959201388888886,0,0,0.010959201388888886,113.82226562499997,0)" xlink:href="#ad"/></g><path fill="#282c33" d="M98-1322v-168h1126v168H757V0H567v-1322H98" id="az"/><g id="p"><use transform="matrix(0.010959201388888886,0,0,0.010959201388888886,0,0)" xlink:href="#az"/><use transform="matrix(0.010959201388888886,0,0,0.010959201388888886,13.216796874999996,0)" xlink:href="#Z"/><use transform="matrix(0.010959201388888886,0,0,0.010959201388888886,21.66634114583333,0)" xlink:href="#ap"/><use transform="matrix(0.010959201388888886,0,0,0.010959201388888886,34.26942274305555,0)" xlink:href="#ab"/><use transform="matrix(0.010959201388888886,0,0,0.010959201388888886,39.705186631944436,0)" xlink:href="#ag"/><use transform="matrix(0.010959201388888886,0,0,0.010959201388888886,52.965820312499986,0)" xlink:href="#Y"/><use transform="matrix(0.010959201388888886,0,0,0.010959201388888886,66.05110677083331,0)" xlink:href="#Z"/></g><path fill="#282c33" d="M677 24c-213 0-288-135-325-197h-20V0H158v-1490h180v551h14c37-59 106-193 324-193 279 0 474 222 474 576 0 356-194 580-473 580zm-27-161c209 0 317-186 317-421 0-232-105-413-317-413-206 0-314 166-314 413 0 249 111 421 314 421" id="aA"/><g id="q"><use transform="matrix(0.010959201388888886,0,0,0.010959201388888886,0,0)" xlink:href="#aa"/><use transform="matrix(0.010959201388888886,0,0,0.010959201388888886,10.32356770833333,0)" xlink:href="#aq"/><use transform="matrix(0.010959201388888886,0,0,0.010959201388888886,29.984374999999993,0)" xlink:href="#Y"/><use transform="matrix(0.010959201388888886,0,0,0.010959201388888886,43.06966145833332,0)" xlink:href="#aq"/><use transform="matrix(0.010959201388888886,0,0,0.010959201388888886,62.730468749999986,0)" xlink:href="#aA"/><use transform="matrix(0.010959201388888886,0,0,0.010959201388888886,76.47330729166666,0)" xlink:href="#Y"/><use transform="matrix(0.010959201388888886,0,0,0.010959201388888886,89.55859374999999,0)" xlink:href="#Z"/><use transform="matrix(0.010959201388888886,0,0,0.010959201388888886,98.00813802083331,0)" xlink:href="#X"/><use transform="matrix(0.010959201388888886,0,0,0.010959201388888886,109.8550347222222,0)" xlink:href="#ad"/></g><g id="r"><use transform="matrix(0.010959201388888886,0,0,0.010959201388888886,0,0)" xlink:href="#au"/><use transform="matrix(0.010959201388888886,0,0,0.010959201388888886,12.69075520833333,0)" xlink:href="#ab"/><use transform="matrix(0.010959201388888886,0,0,0.010959201388888886,18.126519097222218,0)" xlink:href="#X"/><use transform="matrix(0.010959201388888886,0,0,0.010959201388888886,29.973415798611104,0)" xlink:href="#an"/></g><g id="s"><use transform="matrix(0.010959201388888886,0,0,0.010959201388888886,0,0)" xlink:href="#aa"/><use transform="matrix(0.010959201388888886,0,0,0.010959201388888886,10.32356770833333,0)" xlink:href="#as"/><use transform="matrix(0.010959201388888886,0,0,0.010959201388888886,23.14583333333333,0)" xlink:href="#Z"/><use transform="matrix(0.010959201388888886,0,0,0.010959201388888886,31.222764756944436,0)" xlink:href="#Y"/><use transform="matrix(0.010959201388888886,0,0,0.010959201388888886,44.52723524305555,0)" xlink:href="#ap"/><use transform="matrix(0.010959201388888886,0,0,0.010959201388888886,57.13031684027777,0)" xlink:href="#an"/><use transform="matrix(0.010959201388888886,0,0,0.010959201388888886,64.25379774305554,0)" xlink:href="#Y"/><use transform="matrix(0.010959201388888886,0,0,0.010959201388888886,77.33908420138887,0)" xlink:href="#ar"/><use transform="matrix(0.010959201388888886,0,0,0.010959201388888886,91.73947482638887,0)" xlink:href="#Y"/><use transform="matrix(0.010959201388888886,0,0,0.010959201388888886,104.8247612847222,0)" xlink:href="#X"/><use transform="matrix(0.010959201388888886,0,0,0.010959201388888886,116.67165798611109,0)" xlink:href="#X"/><use transform="matrix(0.010959201388888886,0,0,0.010959201388888886,128.51855468749997,0)" xlink:href="#ab"/><use transform="matrix(0.010959201388888886,0,0,0.010959201388888886,133.95431857638886,0)" xlink:href="#af"/><use transform="matrix(0.010959201388888886,0,0,0.010959201388888886,147.4122178819444,0)" xlink:href="#ag"/></g><path fill="#282c33" d="M180 0v-1490h270l367 940c28 72 75 218 110 339 35-117 81-264 110-339l362-940h271V0h-187c2-448-5-837 7-1287-157 497-311 829-483 1287H842C666-458 514-784 354-1284c12 438 5 843 7 1284H180" id="aB"/><g id="t"><use transform="matrix(0.010959201388888886,0,0,0.010959201388888886,0,0)" xlink:href="#aa"/><use transform="matrix(0.010959201388888886,0,0,0.010959201388888886,10.32356770833333,0)" xlink:href="#ap"/><use transform="matrix(0.010959201388888886,0,0,0.010959201388888886,22.92664930555555,0)" xlink:href="#as"/><use transform="matrix(0.010959201388888886,0,0,0.010959201388888886,35.74891493055554,0)" xlink:href="#as"/><use transform="matrix(0.010959201388888886,0,0,0.010959201388888886,48.57118055555554,0)" xlink:href="#Y"/><use transform="matrix(0.010959201388888886,0,0,0.010959201388888886,61.65646701388887,0)" xlink:href="#ax"/><use transform="matrix(0.010959201388888886,0,0,0.010959201388888886,75.39930555555554,0)" xlink:href="#an"/><use transform="matrix(0.010959201388888886,0,0,0.010959201388888886,82.7419704861111,0)" xlink:href="#aB"/><use transform="matrix(0.010959201388888886,0,0,0.010959201388888886,103.01649305555556,0)" xlink:href="#Y"/><use transform="matrix(0.010959201388888886,0,0,0.010959201388888886,116.10177951388886,0)" xlink:href="#aq"/><use transform="matrix(0.010959201388888886,0,0,0.010959201388888886,135.76258680555554,0)" xlink:href="#aA"/><use transform="matrix(0.010959201388888886,0,0,0.010959201388888886,149.5054253472222,0)" xlink:href="#Y"/><use transform="matrix(0.010959201388888886,0,0,0.010959201388888886,162.59071180555554,0)" xlink:href="#Z"/></g><g id="u"><use transform="matrix(0.010959201388888886,0,0,0.010959201388888886,0,0)" xlink:href="#aa"/><use transform="matrix(0.010959201388888886,0,0,0.010959201388888886,10.32356770833333,0)" xlink:href="#Z"/><use transform="matrix(0.010959201388888886,0,0,0.010959201388888886,18.400499131944443,0)" xlink:href="#Y"/><use transform="matrix(0.010959201388888886,0,0,0.010959201388888886,31.48578559027777,0)" xlink:href="#am"/><use transform="matrix(0.010959201388888886,0,0,0.010959201388888886,39.79286024305554,0)" xlink:href="#aw"/><use transform="matrix(0.010959201388888886,0,0,0.010959201388888886,53.064453124999986,0)" xlink:href="#X"/><use transform="matrix(0.010959201388888886,0,0,0.010959201388888886,64.91134982638887,0)" xlink:href="#Y"/><use transform="matrix(0.010959201388888886,0,0,0.010959201388888886,77.9966362847222,0)" xlink:href="#aB"/><use transform="matrix(0.010959201388888886,0,0,0.010959201388888886,98.27115885416664,0)" xlink:href="#Y"/><use transform="matrix(0.010959201388888886,0,0,0.010959201388888886,111.35644531249997,0)" xlink:href="#aq"/><use transform="matrix(0.010959201388888886,0,0,0.010959201388888886,131.01725260416663,0)" xlink:href="#aA"/><use transform="matrix(0.010959201388888886,0,0,0.010959201388888886,144.7600911458333,0)" xlink:href="#Y"/><use transform="matrix(0.010959201388888886,0,0,0.010959201388888886,157.84537760416663,0)" xlink:href="#Z"/></g><g id="v"><use transform="matrix(0.010959201388888886,0,0,0.010959201388888886,0,0)" xlink:href="#at"/><use transform="matrix(0.010959201388888886,0,0,0.010959201388888886,15.485351562499996,0)" xlink:href="#ac"/><use transform="matrix(0.010959201388888886,0,0,0.010959201388888886,29.22819010416666,0)" xlink:href="#aq"/><use transform="matrix(0.010959201388888886,0,0,0.010959201388888886,48.88899739583332,0)" xlink:href="#ab"/><use transform="matrix(0.010959201388888886,0,0,0.010959201388888886,54.32476128472221,0)" xlink:href="#ag"/></g><path fill="#282c33" d="M593-100v-404H195v-159h398v-403h169v403h398v159H762v404H593" id="aC"/><g id="w"><use transform="matrix(0.010959201388888886,0,0,0.010959201388888886,0,0)" xlink:href="#aC"/><use transform="matrix(0.010959201388888886,0,0,0.010959201388888886,14.849717881944441,0)" xlink:href="#as"/><use transform="matrix(0.010959201388888886,0,0,0.010959201388888886,27.67198350694444,0)" xlink:href="#Z"/><use transform="matrix(0.010959201388888886,0,0,0.010959201388888886,35.74891493055554,0)" xlink:href="#Y"/><use transform="matrix(0.010959201388888886,0,0,0.010959201388888886,49.05338541666664,0)" xlink:href="#ap"/><use transform="matrix(0.010959201388888886,0,0,0.010959201388888886,61.65646701388887,0)" xlink:href="#an"/><use transform="matrix(0.010959201388888886,0,0,0.010959201388888886,68.77994791666664,0)" xlink:href="#Y"/><use transform="matrix(0.010959201388888886,0,0,0.010959201388888886,81.86523437499997,0)" xlink:href="#aB"/><use transform="matrix(0.010959201388888886,0,0,0.010959201388888886,102.13975694444441,0)" xlink:href="#Y"/><use transform="matrix(0.010959201388888886,0,0,0.010959201388888886,115.22504340277776,0)" xlink:href="#aq"/><use transform="matrix(0.010959201388888886,0,0,0.010959201388888886,134.8858506944444,0)" xlink:href="#aA"/><use transform="matrix(0.010959201388888886,0,0,0.010959201388888886,148.62868923611106,0)" xlink:href="#Y"/><use transform="matrix(0.010959201388888886,0,0,0.010959201388888886,161.7139756944444,0)" xlink:href="#Z"/></g><g id="x"><use transform="matrix(0.010959201388888886,0,0,0.010959201388888886,0,0)" xlink:href="#aC"/><use transform="matrix(0.010959201388888886,0,0,0.010959201388888886,14.849717881944441,0)" xlink:href="#as"/><use transform="matrix(0.010959201388888886,0,0,0.010959201388888886,27.67198350694444,0)" xlink:href="#Z"/><use transform="matrix(0.010959201388888886,0,0,0.010959201388888886,35.74891493055554,0)" xlink:href="#Y"/><use transform="matrix(0.010959201388888886,0,0,0.010959201388888886,49.05338541666664,0)" xlink:href="#ap"/><use transform="matrix(0.010959201388888886,0,0,0.010959201388888886,61.65646701388887,0)" xlink:href="#an"/><use transform="matrix(0.010959201388888886,0,0,0.010959201388888886,68.77994791666664,0)" xlink:href="#Y"/><use transform="matrix(0.010959201388888886,0,0,0.010959201388888886,80.11176215277774,0)" xlink:href="#az"/><use transform="matrix(0.010959201388888886,0,0,0.010959201388888886,93.32855902777774,0)" xlink:href="#Z"/><use transform="matrix(0.010959201388888886,0,0,0.010959201388888886,101.77810329861107,0)" xlink:href="#ap"/><use transform="matrix(0.010959201388888886,0,0,0.010959201388888886,114.38118489583329,0)" xlink:href="#ab"/><use transform="matrix(0.010959201388888886,0,0,0.010959201388888886,119.81694878472217,0)" xlink:href="#ag"/><use transform="matrix(0.010959201388888886,0,0,0.010959201388888886,133.07758246527771,0)" xlink:href="#Y"/><use transform="matrix(0.010959201388888886,0,0,0.010959201388888886,146.16286892361106,0)" xlink:href="#Z"/></g><g id="y"><use transform="matrix(0.010959201388888886,0,0,0.010959201388888886,0,0)" xlink:href="#aC"/><use transform="matrix(0.010959201388888886,0,0,0.010959201388888886,14.849717881944441,0)" xlink:href="#as"/><use transform="matrix(0.010959201388888886,0,0,0.010959201388888886,27.67198350694444,0)" xlink:href="#Z"/><use transform="matrix(0.010959201388888886,0,0,0.010959201388888886,35.74891493055554,0)" xlink:href="#Y"/><use transform="matrix(0.010959201388888886,0,0,0.010959201388888886,49.05338541666664,0)" xlink:href="#ap"/><use transform="matrix(0.010959201388888886,0,0,0.010959201388888886,61.65646701388887,0)" xlink:href="#an"/><use transform="matrix(0.010959201388888886,0,0,0.010959201388888886,68.77994791666664,0)" xlink:href="#Y"/><use transform="matrix(0.010959201388888886,0,0,0.010959201388888886,81.86523437499997,0)" xlink:href="#ar"/><use transform="matrix(0.010959201388888886,0,0,0.010959201388888886,96.26562499999997,0)" xlink:href="#Y"/><use transform="matrix(0.010959201388888886,0,0,0.010959201388888886,109.35091145833331,0)" xlink:href="#X"/><use transform="matrix(0.010959201388888886,0,0,0.010959201388888886,121.1978081597222,0)" xlink:href="#X"/><use transform="matrix(0.010959201388888886,0,0,0.010959201388888886,133.0447048611111,0)" xlink:href="#ab"/><use transform="matrix(0.010959201388888886,0,0,0.010959201388888886,138.48046874999997,0)" xlink:href="#af"/><use transform="matrix(0.010959201388888886,0,0,0.010959201388888886,151.93836805555551,0)" xlink:href="#ag"/></g><g id="z"><use transform="matrix(0.010959201388888886,0,0,0.010959201388888886,0,0)" xlink:href="#aB"/><use transform="matrix(0.010959201388888886,0,0,0.010959201388888886,20.27452256944444,0)" xlink:href="#Y"/><use transform="matrix(0.010959201388888886,0,0,0.010959201388888886,33.35980902777777,0)" xlink:href="#aq"/><use transform="matrix(0.010959201388888886,0,0,0.010959201388888886,53.020616319444436,0)" xlink:href="#aA"/><use transform="matrix(0.010959201388888886,0,0,0.010959201388888886,66.76345486111109,0)" xlink:href="#Y"/><use transform="matrix(0.010959201388888886,0,0,0.010959201388888886,79.84874131944441,0)" xlink:href="#Z"/></g><g id="A"><use transform="matrix(0.010959201388888886,0,0,0.010959201388888886,0,0)" xlink:href="#aa"/><use transform="matrix(0.010959201388888886,0,0,0.010959201388888886,10.32356770833333,0)" xlink:href="#X"/><use transform="matrix(0.010959201388888886,0,0,0.010959201388888886,22.170464409722214,0)" xlink:href="#Y"/><use transform="matrix(0.010959201388888886,0,0,0.010959201388888886,35.25575086805554,0)" xlink:href="#X"/><use transform="matrix(0.010959201388888886,0,0,0.010959201388888886,47.10264756944442,0)" xlink:href="#X"/><use transform="matrix(0.010959201388888886,0,0,0.010959201388888886,58.94954427083331,0)" xlink:href="#ab"/><use transform="matrix(0.010959201388888886,0,0,0.010959201388888886,64.3853081597222,0)" xlink:href="#af"/><use transform="matrix(0.010959201388888886,0,0,0.010959201388888886,77.84320746527776,0)" xlink:href="#ag"/><use transform="matrix(0.010959201388888886,0,0,0.010959201388888886,91.10384114583331,0)" xlink:href="#X"/><use transform="matrix(0.010959201388888886,0,0,0.010959201388888886,102.9507378472222,0)" xlink:href="#ad"/></g><g id="B"><use transform="matrix(0.010959201388888886,0,0,0.010959201388888886,0,0)" xlink:href="#aC"/><use transform="matrix(0.010959201388888886,0,0,0.010959201388888886,14.849717881944441,0)" xlink:href="#Y"/><use transform="matrix(0.010959201388888886,0,0,0.010959201388888886,27.93500434027777,0)" xlink:href="#ag"/><use transform="matrix(0.010959201388888886,0,0,0.010959201388888886,41.19563802083332,0)" xlink:href="#Z"/><use transform="matrix(0.010959201388888886,0,0,0.010959201388888886,49.272569444444436,0)" xlink:href="#af"/><use transform="matrix(0.010959201388888886,0,0,0.010959201388888886,62.73046874999998,0)" xlink:href="#ae"/><use transform="matrix(0.010959201388888886,0,0,0.010959201388888886,68.16623263888887,0)" xlink:href="#ae"/></g><g id="C"><use transform="matrix(0.010959201388888886,0,0,0.010959201388888886,0,0)" xlink:href="#aC"/><use transform="matrix(0.010959201388888886,0,0,0.010959201388888886,14.849717881944441,0)" xlink:href="#as"/><use transform="matrix(0.010959201388888886,0,0,0.010959201388888886,27.891167534722214,0)" xlink:href="#ap"/><use transform="matrix(0.010959201388888886,0,0,0.010959201388888886,40.494249131944436,0)" xlink:href="#ag"/><use transform="matrix(0.010959201388888886,0,0,0.010959201388888886,53.754882812499986,0)" xlink:href="#as"/><use transform="matrix(0.010959201388888886,0,0,0.010959201388888886,66.57714843749999,0)" xlink:href="#Y"/><use transform="matrix(0.010959201388888886,0,0,0.010959201388888886,79.66243489583331,0)" xlink:href="#ae"/></g><g id="D"><use transform="matrix(0.010959201388888886,0,0,0.010959201388888886,0,0)" xlink:href="#ar"/><use transform="matrix(0.010959201388888886,0,0,0.010959201388888886,14.400390624999996,0)" xlink:href="#Y"/><use transform="matrix(0.010959201388888886,0,0,0.010959201388888886,27.48567708333333,0)" xlink:href="#X"/><use transform="matrix(0.010959201388888886,0,0,0.010959201388888886,39.332573784722214,0)" xlink:href="#X"/><use transform="matrix(0.010959201388888886,0,0,0.010959201388888886,51.1794704861111,0)" xlink:href="#ab"/><use transform="matrix(0.010959201388888886,0,0,0.010959201388888886,56.615234374999986,0)" xlink:href="#af"/><use transform="matrix(0.010959201388888886,0,0,0.010959201388888886,70.07313368055554,0)" xlink:href="#ag"/></g><path fill="#282c33" d="M370-1490V0H180v-1490h190" id="aD"/><g id="E"><use transform="matrix(0.010959201388888886,0,0,0.010959201388888886,0,0)" xlink:href="#aa"/><use transform="matrix(0.010959201388888886,0,0,0.010959201388888886,10.32356770833333,0)" xlink:href="#X"/><use transform="matrix(0.010959201388888886,0,0,0.010959201388888886,22.170464409722214,0)" xlink:href="#Y"/><use transform="matrix(0.010959201388888886,0,0,0.010959201388888886,35.25575086805554,0)" xlink:href="#X"/><use transform="matrix(0.010959201388888886,0,0,0.010959201388888886,47.10264756944442,0)" xlink:href="#X"/><use transform="matrix(0.010959201388888886,0,0,0.010959201388888886,58.94954427083331,0)" xlink:href="#ab"/><use transform="matrix(0.010959201388888886,0,0,0.010959201388888886,64.3853081597222,0)" xlink:href="#af"/><use transform="matrix(0.010959201388888886,0,0,0.010959201388888886,77.84320746527776,0)" xlink:href="#ag"/><use transform="matrix(0.010959201388888886,0,0,0.010959201388888886,91.10384114583331,0)" xlink:href="#aD"/><use transform="matrix(0.010959201388888886,0,0,0.010959201388888886,97.1314019097222,0)" xlink:href="#ac"/><use transform="matrix(0.010959201388888886,0,0,0.010959201388888886,110.87424045138886,0)" xlink:href="#ad"/></g><g id="F"><use transform="matrix(0.010959201388888886,0,0,0.010959201388888886,0,0)" xlink:href="#aa"/><use transform="matrix(0.010959201388888886,0,0,0.010959201388888886,10.32356770833333,0)" xlink:href="#an"/><use transform="matrix(0.010959201388888886,0,0,0.010959201388888886,17.666232638888886,0)" xlink:href="#ab"/><use transform="matrix(0.010959201388888886,0,0,0.010959201388888886,23.10199652777777,0)" xlink:href="#an"/><use transform="matrix(0.010959201388888886,0,0,0.010959201388888886,30.444661458333325,0)" xlink:href="#ae"/><use transform="matrix(0.010959201388888886,0,0,0.010959201388888886,35.880425347222214,0)" xlink:href="#Y"/><use transform="matrix(0.010959201388888886,0,0,0.010959201388888886,48.96571180555554,0)" xlink:href="#ad"/></g><g id="G"><use transform="matrix(0.010959201388888886,0,0,0.010959201388888886,0,0)" xlink:href="#aa"/><use transform="matrix(0.010959201388888886,0,0,0.010959201388888886,10.32356770833333,0)" xlink:href="#ac"/><use transform="matrix(0.010959201388888886,0,0,0.010959201388888886,24.066406249999993,0)" xlink:href="#Y"/><use transform="matrix(0.010959201388888886,0,0,0.010959201388888886,37.15169270833332,0)" xlink:href="#X"/><use transform="matrix(0.010959201388888886,0,0,0.010959201388888886,48.998589409722214,0)" xlink:href="#as"/><use transform="matrix(0.010959201388888886,0,0,0.010959201388888886,61.8208550347222,0)" xlink:href="#Z"/><use transform="matrix(0.010959201388888886,0,0,0.010959201388888886,70.62109374999997,0)" xlink:href="#ab"/><use transform="matrix(0.010959201388888886,0,0,0.010959201388888886,76.05685763888886,0)" xlink:href="#ax"/><use transform="matrix(0.010959201388888886,0,0,0.010959201388888886,89.79969618055551,0)" xlink:href="#an"/><use transform="matrix(0.010959201388888886,0,0,0.010959201388888886,97.14236111111107,0)" xlink:href="#ab"/><use transform="matrix(0.010959201388888886,0,0,0.010959201388888886,102.57812499999996,0)" xlink:href="#af"/><use transform="matrix(0.010959201388888886,0,0,0.010959201388888886,116.03602430555551,0)" xlink:href="#ag"/><use transform="matrix(0.010959201388888886,0,0,0.010959201388888886,129.29665798611106,0)" xlink:href="#ad"/></g><path fill="#282c33" d="M140 405l46-156c120 36 205 19 263-150l32-93L54-1118h197c107 313 237 620 324 950 87-331 219-637 326-950h196L606 167c-68 178-176 259-334 259-64 0-113-12-132-21" id="aE"/><g id="H"><use transform="matrix(0.010959201388888886,0,0,0.010959201388888886,0,0)" xlink:href="#aa"/><use transform="matrix(0.010959201388888886,0,0,0.010959201388888886,10.32356770833333,0)" xlink:href="#as"/><use transform="matrix(0.010959201388888886,0,0,0.010959201388888886,23.365017361111107,0)" xlink:href="#ap"/><use transform="matrix(0.010959201388888886,0,0,0.010959201388888886,35.96809895833333,0)" xlink:href="#an"/><use transform="matrix(0.010959201388888886,0,0,0.010959201388888886,43.0915798611111,0)" xlink:href="#Y"/><use transform="matrix(0.010959201388888886,0,0,0.010959201388888886,56.17686631944443,0)" xlink:href="#ah"/><use transform="matrix(0.010959201388888886,0,0,0.010959201388888886,69.94162326388887,0)" xlink:href="#af"/><use transform="matrix(0.010959201388888886,0,0,0.010959201388888886,83.39952256944443,0)" xlink:href="#an"/><use transform="matrix(0.010959201388888886,0,0,0.010959201388888886,91.18055555555553,0)" xlink:href="#aE"/><use transform="matrix(0.010959201388888886,0,0,0.010959201388888886,103.79459635416666,0)" xlink:href="#ad"/></g><g id="I"><use transform="matrix(0.010959201388888886,0,0,0.010959201388888886,0,0)" xlink:href="#ar"/><use transform="matrix(0.010959201388888886,0,0,0.010959201388888886,14.400390624999996,0)" xlink:href="#an"/><use transform="matrix(0.010959201388888886,0,0,0.010959201388888886,21.74305555555555,0)" xlink:href="#Z"/><use transform="matrix(0.010959201388888886,0,0,0.010959201388888886,30.543294270833325,0)" xlink:href="#ab"/><use transform="matrix(0.010959201388888886,0,0,0.010959201388888886,35.979058159722214,0)" xlink:href="#ag"/><use transform="matrix(0.010959201388888886,0,0,0.010959201388888886,49.239691840277764,0)" xlink:href="#ah"/></g><path fill="#282c33" d="M180 0v-1490h908v168H370v486h669v168H370v500h727V0H180" id="aF"/><g id="J"><use transform="matrix(0.010959201388888886,0,0,0.010959201388888886,0,0)" xlink:href="#aF"/><use transform="matrix(0.010959201388888886,0,0,0.010959201388888886,13.49077690972222,0)" xlink:href="#ag"/><use transform="matrix(0.010959201388888886,0,0,0.010959201388888886,26.75141059027777,0)" xlink:href="#Z"/><use transform="matrix(0.010959201388888886,0,0,0.010959201388888886,34.828342013888886,0)" xlink:href="#af"/><use transform="matrix(0.010959201388888886,0,0,0.010959201388888886,48.286241319444436,0)" xlink:href="#ae"/><use transform="matrix(0.010959201388888886,0,0,0.010959201388888886,53.72200520833332,0)" xlink:href="#ae"/><use transform="matrix(0.010959201388888886,0,0,0.010959201388888886,59.15776909722221,0)" xlink:href="#aq"/><use transform="matrix(0.010959201388888886,0,0,0.010959201388888886,78.81857638888887,0)" xlink:href="#Y"/><use transform="matrix(0.010959201388888886,0,0,0.010959201388888886,91.9038628472222,0)" xlink:href="#ag"/><use transform="matrix(0.010959201388888886,0,0,0.010959201388888886,105.16449652777776,0)" xlink:href="#an"/></g><g id="K"><use transform="matrix(0.010959201388888886,0,0,0.010959201388888886,0,0)" xlink:href="#aa"/><use transform="matrix(0.010959201388888886,0,0,0.010959201388888886,10.32356770833333,0)" xlink:href="#ab"/><use transform="matrix(0.010959201388888886,0,0,0.010959201388888886,15.759331597222218,0)" xlink:href="#ac"/><use transform="matrix(0.010959201388888886,0,0,0.010959201388888886,29.502170138888882,0)" xlink:href="#ad"/></g><g id="L"><use transform="matrix(0.010959201388888886,0,0,0.010959201388888886,0,0)" xlink:href="#ae"/><use transform="matrix(0.010959201388888886,0,0,0.010959201388888886,5.4357638888888875,0)" xlink:href="#af"/><use transform="matrix(0.010959201388888886,0,0,0.010959201388888886,18.89366319444444,0)" xlink:href="#ag"/><use transform="matrix(0.010959201388888886,0,0,0.010959201388888886,32.15429687499999,0)" xlink:href="#ah"/></g><g id="M"><use transform="matrix(0.010959201388888886,0,0,0.010959201388888886,0,0)" xlink:href="#ar"/><use transform="matrix(0.010959201388888886,0,0,0.010959201388888886,14.400390624999996,0)" xlink:href="#an"/><use transform="matrix(0.010959201388888886,0,0,0.010959201388888886,21.74305555555555,0)" xlink:href="#Z"/><use transform="matrix(0.010959201388888886,0,0,0.010959201388888886,30.543294270833325,0)" xlink:href="#ab"/><use transform="matrix(0.010959201388888886,0,0,0.010959201388888886,35.979058159722214,0)" xlink:href="#ag"/><use transform="matrix(0.010959201388888886,0,0,0.010959201388888886,49.239691840277764,0)" xlink:href="#ah"/></g><path fill="#282c33" d="M180 0v-1490h901v168H370v510h643v168H370V0H180" id="aG"/><g id="N"><use transform="matrix(0.010959201388888886,0,0,0.010959201388888886,0,0)" xlink:href="#ai"/><use transform="matrix(0.010959201388888886,0,0,0.010959201388888886,8.186523437499998,0)" xlink:href="#aG"/><use transform="matrix(0.010959201388888886,0,0,0.010959201388888886,21.436197916666664,0)" xlink:href="#ak"/><use transform="matrix(0.010959201388888886,0,0,0.010959201388888886,36.51605902777777,0)" xlink:href="#al"/></g><g id="O"><use transform="matrix(0.010959201388888886,0,0,0.010959201388888886,0,0)" xlink:href="#aa"/><use transform="matrix(0.010959201388888886,0,0,0.010959201388888886,10.32356770833333,0)" xlink:href="#aq"/><use transform="matrix(0.010959201388888886,0,0,0.010959201388888886,29.984374999999993,0)" xlink:href="#Y"/><use transform="matrix(0.010959201388888886,0,0,0.010959201388888886,43.06966145833332,0)" xlink:href="#aq"/><use transform="matrix(0.010959201388888886,0,0,0.010959201388888886,62.730468749999986,0)" xlink:href="#aA"/><use transform="matrix(0.010959201388888886,0,0,0.010959201388888886,76.47330729166666,0)" xlink:href="#Y"/><use transform="matrix(0.010959201388888886,0,0,0.010959201388888886,89.55859374999999,0)" xlink:href="#Z"/><use transform="matrix(0.010959201388888886,0,0,0.010959201388888886,98.35883246527776,0)" xlink:href="#aD"/><use transform="matrix(0.010959201388888886,0,0,0.010959201388888886,104.38639322916664,0)" xlink:href="#ac"/><use transform="matrix(0.010959201388888886,0,0,0.010959201388888886,118.1292317708333,0)" xlink:href="#ad"/></g><path d="M653-1490V0H466v-1314h-10L96-1047v-204l324-239h233" id="aH"/><use transform="matrix(0.008173828125000001,0,0,0.008173828125000001,0,0)" xlink:href="#aH" id="P"/><path d="M295 13c-75 0-135-60-135-135s60-135 135-135 135 60 135 135S370 13 295 13" id="aI"/><path d="M441-652l13-317-268 171-72-126 282-146-282-146 72-128 268 171-13-317h144l-12 317 267-171 72 128-282 146 282 146-72 126-267-171 12 317H441" id="aJ"/><g id="Q"><use transform="matrix(0.008173828125000001,0,0,0.008173828125000001,0,0)" xlink:href="#aH"/><use transform="matrix(0.008173828125000001,0,0,0.008173828125000001,6.808798828125001,0)" xlink:href="#aI"/><use transform="matrix(0.008173828125000001,0,0,0.008173828125000001,11.631357421875002,0)" xlink:href="#aI"/><use transform="matrix(0.008173828125000001,0,0,0.008173828125000001,16.453916015625,0)" xlink:href="#aJ"/></g><use transform="matrix(0.008173828125000001,0,0,0.008173828125000001,0,0)" xlink:href="#aJ" id="R"/><path d="M646 20c-332 0-524-278-524-764 0-483 194-766 524-766s524 283 524 766c0 485-191 764-524 764zm0-166c218 0 341-220 341-598 0-380-123-601-341-601s-341 222-341 601c0 378 123 598 341 598" id="aK"/><g id="S"><use transform="matrix(0.008173828125000001,0,0,0.008173828125000001,0,0)" xlink:href="#aK"/><use transform="matrix(0.008173828125000001,0,0,0.008173828125000001,10.135546875000001,0)" xlink:href="#aI"/><use transform="matrix(0.008173828125000001,0,0,0.008173828125000001,14.958105468750002,0)" xlink:href="#aI"/><use transform="matrix(0.008173828125000001,0,0,0.008173828125000001,19.7806640625,0)" xlink:href="#aJ"/></g><path fill="#282c33" d="M441-652l13-317-268 171-72-126 282-146-282-146 72-128 268 171-13-317h144l-12 317 267-171 72 128-282 146 282 146-72 126-267-171 12 317H441" id="aL"/><use transform="matrix(0.010959201388888886,0,0,0.010959201388888886,0,0)" xlink:href="#aL" id="T"/><path fill="#282c33" d="M174-520v-126l944-476v196L406-588v12l712 338v194" id="aM"/><path fill="#282c33" d="M338-670V0H158v-1490h180v566c73-149 190-208 336-208 226 0 379 139 379 422V0H872v-695c0-172-96-275-252-275-161 0-282 109-282 300" id="aN"/><path fill="#282c33" d="M1181-520L237-44v-194l712-338v-12L237-926v-196l944 476v126" id="aO"/><g id="U"><use transform="matrix(0.006510416666666667,0,0,0.006510416666666667,0,0)" xlink:href="#aM"/><use transform="matrix(0.006510416666666667,0,0,0.006510416666666667,8.821614583333334,0)" xlink:href="#aM"/><use transform="matrix(0.006510416666666667,0,0,0.006510416666666667,17.643229166666668,0)" xlink:href="#aN"/><use transform="matrix(0.006510416666666667,0,0,0.006510416666666667,25.52734375,0)" xlink:href="#ap"/><use transform="matrix(0.006510416666666667,0,0,0.006510416666666667,33.014322916666664,0)" xlink:href="#X"/><use transform="matrix(0.006510416666666667,0,0,0.006510416666666667,40.05208333333333,0)" xlink:href="#aO"/><use transform="matrix(0.006510416666666667,0,0,0.006510416666666667,48.873697916666664,0)" xlink:href="#aO"/></g><g id="V"><use transform="matrix(0.006510416666666667,0,0,0.006510416666666667,0,0)" xlink:href="#aM"/><use transform="matrix(0.006510416666666667,0,0,0.006510416666666667,8.821614583333334,0)" xlink:href="#aM"/><use transform="matrix(0.006510416666666667,0,0,0.006510416666666667,17.643229166666668,0)" xlink:href="#ah"/><use transform="matrix(0.006510416666666667,0,0,0.006510416666666667,25.8203125,0)" xlink:href="#Y"/><use transform="matrix(0.006510416666666667,0,0,0.006510416666666667,33.59375,0)" xlink:href="#ag"/><use transform="matrix(0.006510416666666667,0,0,0.006510416666666667,41.471354166666664,0)" xlink:href="#Y"/><use transform="matrix(0.006510416666666667,0,0,0.006510416666666667,49.244791666666664,0)" xlink:href="#Z"/><use transform="matrix(0.006510416666666667,0,0,0.006510416666666667,54.26432291666667,0)" xlink:href="#ap"/><use transform="matrix(0.006510416666666667,0,0,0.006510416666666667,61.75130208333332,0)" xlink:href="#an"/><use transform="matrix(0.006510416666666667,0,0,0.006510416666666667,65.98307291666666,0)" xlink:href="#Y"/><use transform="matrix(0.006510416666666667,0,0,0.006510416666666667,73.75651041666666,0)" xlink:href="#aO"/><use transform="matrix(0.006510416666666667,0,0,0.006510416666666667,82.57812499999999,0)" xlink:href="#aO"/></g></defs></g></svg>