<svg xmlns="http://www.w3.org/2000/svg" xmlns:xlink="http://www.w3.org/1999/xlink" xmlns:lucid="lucid" width="2822.5" height="2741"><g transform="translate(-538 1780.5)" lucid:page-tab-id="0_0"><path d="M500-2000h3000v3000H500z" fill="#fff"/><path d="M2120-1772a8 8 0 0 1 8-8h1224a8 8 0 0 1 8 8V952a8 8 0 0 1-8 8H2128a8 8 0 0 1-8-8z" stroke="#000" stroke-opacity="0" fill="#edf5ff"/><use xlink:href="#a" transform="matrix(1,0,0,1,2128,-1772) translate(539.6454752604167 28.02916666666667)"/><path d="M2340-1525.7c0 33.13-35.82 60-80 60s-80-26.88-80-60c0-33.15 35.82-60 80-60s80 26.85 80 60z" stroke="#ff80df" stroke-width="2" fill="#4d9eff"/><use xlink:href="#b" transform="matrix(1,0,0,1,2180,-1585.7119208942177) translate(32.64992675781249 64.966875)"/><use xlink:href="#c" transform="matrix(1,0,0,1,2180,-1585.7119208942177) translate(90.0056787109375 64.966875)"/><path d="M2340-1360c0 33.14-35.82 60-80 60s-80-26.86-80-60 35.82-60 80-60 80 26.86 80 60z" stroke="#ff80df" stroke-width="2" fill="#4d9eff"/><use xlink:href="#d" transform="matrix(1,0,0,1,2180,-1420) translate(38.92333984374999 64.966875)"/><use xlink:href="#c" transform="matrix(1,0,0,1,2180,-1420) translate(83.732265625 64.966875)"/><path d="M602.77-242.92c0 10.9-8.85 19.75-19.75 19.75s-19.75-8.84-19.75-19.75c0-10.9 8.84-19.75 19.75-19.75 10.9 0 19.75 8.85 19.75 19.75z" stroke="#3a414a" stroke-width="4" fill="#fff"/><path d="M583.02-223.17v49.3a19.48 19.48 0 0 0 3.37 10.96l39.64 58.23m-43.02-63.2L540-104.67m0-98.75h86.04" stroke="#3a414a" stroke-width="4" fill="none"/><path d="M540-256.67a6 6 0 0 1 6-6h74.04a6 6 0 0 1 6 6v168a6 6 0 0 1-6 6H546a6 6 0 0 1-6-6z" fill="none"/><use xlink:href="#e" transform="matrix(1,0,0,1,460,-104.66666666662786) translate(100.21114908854167 20.22104166666666)"/><path d="M1062.77 219.75c0 10.9-8.85 19.75-19.75 19.75s-19.75-8.84-19.75-19.75c0-10.9 8.84-19.75 19.75-19.75 10.9 0 19.75 8.84 19.75 19.75z" stroke="#3a414a" stroke-width="4" fill="#fff"/><path d="M1043.02 239.5v49.3a19.48 19.48 0 0 0 3.37 10.96l39.64 58.24m-43.02-63.2L1000 358m0-98.75h86.04" stroke="#3a414a" stroke-width="4" fill="none"/><path d="M1000 206a6 6 0 0 1 6-6h74.04a6 6 0 0 1 6 6v168a6 6 0 0 1-6 6H1006a6 6 0 0 1-6-6z" fill="none"/><use xlink:href="#f" transform="matrix(1,0,0,1,920,358) translate(39.42062337239585 20.22104166666666)"/><use xlink:href="#g" transform="matrix(1,0,0,1,920,358) translate(161.0016748046875 20.22104166666666)"/><path d="M1062.77-700.25c0 10.9-8.85 19.75-19.75 19.75s-19.75-8.84-19.75-19.75c0-10.9 8.84-19.75 19.75-19.75 10.9 0 19.75 8.84 19.75 19.75z" stroke="#3a414a" stroke-width="4" fill="#fff"/><path d="M1043.02-680.5v49.3a19.48 19.48 0 0 0 3.37 10.96l39.64 58.24m-43.02-63.2L1000-562m0-98.75h86.04" stroke="#3a414a" stroke-width="4" fill="none"/><path d="M1000-714a6 6 0 0 1 6-6h74.04a6 6 0 0 1 6 6v168a6 6 0 0 1-6 6H1006a6 6 0 0 1-6-6z" fill="none"/><use xlink:href="#h" transform="matrix(1,0,0,1,920,-562) translate(50.54525390625001 20.22104166666666)"/><use xlink:href="#g" transform="matrix(1,0,0,1,920,-562) translate(149.87704427083332 20.22104166666666)"/><path d="M1522.77-1240.25c0 10.9-8.85 19.75-19.75 19.75s-19.75-8.84-19.75-19.75c0-10.9 8.84-19.75 19.75-19.75 10.9 0 19.75 8.84 19.75 19.75z" stroke="#3a414a" stroke-width="4" fill="#fff"/><path d="M1503.02-1220.5v49.3a19.48 19.48 0 0 0 3.37 10.96l39.64 58.24m-43.02-63.2L1460-1102m0-98.75h86.04" stroke="#3a414a" stroke-width="4" fill="none"/><path d="M1460-1254a6 6 0 0 1 6-6h74.04a6 6 0 0 1 6 6v168a6 6 0 0 1-6 6H1466a6 6 0 0 1-6-6z" fill="none"/><use xlink:href="#i" transform="matrix(1,0,0,1,1380,-1102) translate(92.07279134114584 20.22104166666666)"/><path d="M1522.77-700.25c0 10.9-8.85 19.75-19.75 19.75s-19.75-8.84-19.75-19.75c0-10.9 8.84-19.75 19.75-19.75 10.9 0 19.75 8.84 19.75 19.75z" stroke="#3a414a" stroke-width="4" fill="#fff"/><path d="M1503.02-680.5v49.3a19.48 19.48 0 0 0 3.37 10.96l39.64 58.24m-43.02-63.2L1460-562m0-98.75h86.04" stroke="#3a414a" stroke-width="4" fill="none"/><path d="M1460-714a6 6 0 0 1 6-6h74.04a6 6 0 0 1 6 6v168a6 6 0 0 1-6 6H1466a6 6 0 0 1-6-6z" fill="none"/><use xlink:href="#j" transform="matrix(1,0,0,1,1380,-562) translate(82.44129720052084 20.22104166666666)"/><path d="M1522.77-200.25c0 10.9-8.85 19.75-19.75 19.75s-19.75-8.84-19.75-19.75c0-10.9 8.84-19.75 19.75-19.75 10.9 0 19.75 8.84 19.75 19.75z" stroke="#3a414a" stroke-width="4" fill="#fff"/><path d="M1503.02-180.5v49.3a19.48 19.48 0 0 0 3.37 10.96L1546.03-62m-43.02-63.2L1460-62m0-98.75h86.04" stroke="#3a414a" stroke-width="4" fill="none"/><path d="M1460-214a6 6 0 0 1 6-6h74.04a6 6 0 0 1 6 6v168a6 6 0 0 1-6 6H1466a6 6 0 0 1-6-6z" fill="none"/><use xlink:href="#k" transform="matrix(1,0,0,1,1380,-62) translate(88.85719726562502 20.22104166666666)"/><path d="M608.17-183.9h198.87a6 6 0 0 1 6 6V284a6 6 0 0 0 6 6h221.5" stroke="#3a414a" fill="none"/><path d="M586.02-183.9l21.65-12.5v25z" stroke="#3a414a" fill="#fff"/><path d="M1040.54 290h3.5M1040.52-641.25h-221.5a6 6 0 0 0-6 6v445.34a6 6 0 0 1-6 6H608.17M1040.5-641.25h3.52" stroke="#3a414a" fill="none"/><path d="M586.02-183.9l21.65-12.5v25z" stroke="#3a414a" fill="#fff"/><path d="M1500.52-1181.24h-221.5a6 6 0 0 0-6 6v531.8a6 6 0 0 1-6 6h-198.85M1500.5-1181.24h3.52" stroke="#3a414a" fill="none"/><path d="M1046.02-637.45l21.65-12.5v25z" stroke="#3a414a" fill="#fff"/><path d="M1500.52-641.25h-227M1500.5-641.25h3.52M1273.53-641.25h-.5M1500.52-141.25h-221.48a6 6 0 0 1-6-6V-632.1a5.37 5.37 0 0 0-5.36-5.35M1500.5-141.25h3.52M1267.7-637.45h-.52M1045.02-640.75v5.3M1045.02-635.45v3.5" stroke="#3a414a" fill="none"/><path d="M2340-1194.3c0 33.15-35.82 60-80 60s-80-26.85-80-60c0-33.13 35.82-60 80-60s80 26.88 80 60z" stroke="#ff80df" stroke-width="2" fill="#4d9eff"/><use xlink:href="#l" transform="matrix(1,0,0,1,2180,-1254.2880791057823) translate(30.25908203125 64.966875)"/><use xlink:href="#c" transform="matrix(1,0,0,1,2180,-1254.2880791057823) translate(92.39652343750001 64.966875)"/><path d="M2340-1020c0 33.14-35.82 60-80 60s-80-26.86-80-60 35.82-60 80-60 80 26.86 80 60z" stroke="#ff80df" stroke-width="2" fill="#4d9eff"/><use xlink:href="#m" transform="matrix(1,0,0,1,2180,-1080) translate(33.61035156249999 64.966875)"/><use xlink:href="#c" transform="matrix(1,0,0,1,2180,-1080) translate(89.04525390625 64.966875)"/><path d="M2340 180c0 33.14-35.82 60-80 60s-80-26.86-80-60 35.82-60 80-60 80 26.86 80 60z" stroke="#ff80df" stroke-width="2" fill="#4d9eff"/><use xlink:href="#b" transform="matrix(1,0,0,1,2180,120) translate(20.250229492187497 64.966875)"/><use xlink:href="#n" transform="matrix(1,0,0,1,2180,120) translate(77.6059814453125 64.966875)"/><path d="M2340 342.67c0 33.13-35.82 60-80 60s-80-26.87-80-60c0-33.14 35.82-60 80-60s80 26.86 80 60z" stroke="#ff80df" stroke-width="2" fill="#4d9eff"/><use xlink:href="#d" transform="matrix(1,0,0,1,2180,282.6666666666665) translate(26.52364257812499 64.966875)"/><use xlink:href="#n" transform="matrix(1,0,0,1,2180,282.6666666666665) translate(71.33256835937499 64.966875)"/><path d="M2340 510c0 33.14-35.82 60-80 60s-80-26.86-80-60 35.82-60 80-60 80 26.86 80 60z" stroke="#ff80df" stroke-width="2" fill="#4d9eff"/><use xlink:href="#l" transform="matrix(1,0,0,1,2180,450.00000000003865) translate(17.85938476562499 64.966875)"/><use xlink:href="#n" transform="matrix(1,0,0,1,2180,450.00000000003865) translate(79.996826171875 64.966875)"/><path d="M2340 677.33c0 33.14-35.82 60-80 60s-80-26.86-80-60c0-33.13 35.82-60 80-60s80 26.87 80 60z" stroke="#ff80df" stroke-width="2" fill="#4d9eff"/><use xlink:href="#m" transform="matrix(1,0,0,1,2180,617.3333333334112) translate(21.210654296874996 64.966875)"/><use xlink:href="#n" transform="matrix(1,0,0,1,2180,617.3333333334112) translate(76.64555664062499 64.966875)"/><path d="M2340-760c0 33.14-35.82 60-80 60s-80-26.86-80-60 35.82-60 80-60 80 26.86 80 60z" stroke="#ff80df" stroke-width="2" fill="#4d9eff"/><use xlink:href="#o" transform="matrix(1,0,0,1,2180,-820) translate(57.943837890625 64.966875)"/><path d="M2340-590c0 33.14-35.82 60-80 60s-80-26.86-80-60 35.82-60 80-60 80 26.86 80 60z" stroke="#ff80df" stroke-width="2" fill="#4d9eff"/><use xlink:href="#p" transform="matrix(1,0,0,1,2180,-649.9999999999999) translate(52.557285156249996 57.466875)"/><use xlink:href="#q" transform="matrix(1,0,0,1,2180,-649.9999999999999) translate(35.694677734375 77.72162109375)"/><use xlink:href="#r" transform="matrix(1,0,0,1,2180,-649.9999999999999) translate(40.402802734375 77.72162109375)"/><path d="M2340-420c0 33.14-35.82 60-80 60s-80-26.86-80-60 35.82-60 80-60 80 26.86 80 60z" stroke="#ff80df" stroke-width="2" fill="#4d9eff"/><use xlink:href="#s" transform="matrix(1,0,0,1,2180,-479.9999999999999) translate(51.92381347656249 57.466875)"/><use xlink:href="#t" transform="matrix(1,0,0,1,2180,-479.9999999999999) translate(38.048740234374996 77.72162109375)"/><path d="M2340-250c0 33.14-35.82 60-80 60s-80-26.86-80-60 35.82-60 80-60 80 26.86 80 60z" stroke="#ff80df" stroke-width="2" fill="#4d9eff"/><use xlink:href="#u" transform="matrix(1,0,0,1,2180,-309.99999999999966) translate(66.0890576171875 57.466875)"/><use xlink:href="#t" transform="matrix(1,0,0,1,2180,-309.99999999999966) translate(38.048740234374996 77.72162109375)"/><path d="M2178.56-1525.48l-673.05 355.25" stroke="#3a414a" fill="none"/><path d="M2179-1525.72v.54l-.23.13-.45-.84.7-.36z" stroke="#3a414a" stroke-width=".05" fill="#3a414a"/><path d="M1505.52-1170.24l-3.1 1.64M2178.52-1359.86l-672.97 189.72" stroke="#3a414a" fill="none"/><path d="M2179-1360v.5l-.36.1-.26-.92.63-.18z" stroke="#3a414a" stroke-width=".05" fill="#3a414a"/><path d="M1505.56-1170.14l-3.38.95M2178.5-1194.27l-672.94 24.25" stroke="#3a414a" fill="none"/><path d="M2179-1194.3v.5h-.5l-.03-.94.54-.02z" stroke="#3a414a" stroke-width=".05" fill="#3a414a"/><path d="M1505.58-1170.02l-3.5.13M2178.5-1020.1L1506.6-1157" stroke="#3a414a" fill="none"/><path d="M2179-1020.48v.97l-.6-.14.2-.93z" stroke="#3a414a" stroke-width=".05" fill="#3a414a"/><path d="M1506.62-1157l-3.44-.7M2178.5-759.9L1501.6-629.6" stroke="#3a414a" fill="none"/><path d="M2179-760V-759.53l-.4.08-.2-.93.6-.12z" stroke="#3a414a" stroke-width=".05" fill="#3a414a"/><path d="M1501.6-629.58l-3.45.67M2178.5-590.03l-676.9-39.42" stroke="#3a414a" fill="none"/><path d="M2179-590.48v.95l-.54-.04.06-.94z" stroke="#3a414a" stroke-width=".05" fill="#3a414a"/><path d="M1501.6-629.45l-3.5-.2M2178.56-250.25l-672.9-378" stroke="#3a414a" fill="none"/><path d="M2179.02-250.54l-.02.53v.55l-.68-.4.47-.8z" stroke="#3a414a" stroke-width=".05" fill="#3a414a"/><path d="M1505.68-628.24l-3.06-1.72M1505.47-138.4l673.08 318.2M1505.48-138.4l-3.17-1.5" stroke="#3a414a" fill="none"/><path d="M2179.02 179.48l-.02.5v.55l-.67-.32.4-.85z" stroke="#3a414a" stroke-width=".05" fill="#3a414a"/><path d="M1501.43-140.96l679.1 470.12M1501.44-140.95l-2.9-2" stroke="#3a414a" fill="none"/><path d="M2181.07 328.96l-.28.96-.56-.38.54-.78z" stroke="#3a414a" stroke-width=".05" fill="#3a414a"/><path d="M1501.38-140.9l677.26 650.55M1501.4-140.9l-2.55-2.42" stroke="#3a414a" fill="none"/><path d="M2179.02 509.36l-.02.63v.67l-.7-.68.66-.7z" stroke="#3a414a" stroke-width=".05" fill="#3a414a"/><path d="M2178.68 676.95l-677.34-816.17" stroke="#3a414a" fill="none"/><path d="M2179 677.32v.42l.02.36-.7-.86.7-.6z" stroke="#3a414a" stroke-width=".05" fill="#3a414a"/><path d="M1501.35-139.2l-2.25-2.72M2178.54-419.8l-673.06 281" stroke="#3a414a" fill="none"/><path d="M2179-420v.5l-.3.14-.36-.88.68-.28z" stroke="#3a414a" stroke-width=".05" fill="#3a414a"/><path d="M1505.5-138.8l-3.25 1.35M1041.52 278.78l1136.98 63.86M1041.53 278.78l-3.5-.2" stroke="#3a414a" fill="none"/><path d="M2179 342.2v.94l-.54-.03.05-.94z" stroke="#3a414a" stroke-width=".05" fill="#3a414a"/><path d="M3120-510c0 49.7-58.2 90-130 90s-130-40.3-130-90 58.2-90 130-90 130 40.3 130 90z" stroke="#ff80df" stroke-width="2" fill="#cfe4ff"/><use xlink:href="#v" transform="matrix(1,0,0,1,2860,-600) translate(72.71055175781251 94.966875)"/><path d="M2989.33-418.38l-1.1 1.02m-1.47 1.36l-2.2 2.03m-1.5 1.36l-2.2 2.03m-1.47 1.36l-2.22 2.03m-1.47 1.36l-2.2 2.03m-1.47 1.36l-2.2 2.03m-1.48 1.36l-2.2 2.02m-1.5 1.36l-2.2 2.04m-1.47 1.36l-2.2 2.04m-1.48 1.36l-2.2 2.04m-1.48 1.36l-2.2 2.04m-1.48 1.36l-2.2 2.03m-1.48 1.37l-2.2 2.04m-1.5 1.37l-2.2 2.04m-1.47 1.37l-2.22 2.04m-1.47 1.37l-2.2 2.04m-1.47 1.36l-2.2 2.04m-1.48 1.36l-2.2 2.04m-1.48 1.36l-2.2 2.04m-1.48 1.36l-2.22 2.04m-1.48 1.36l-2.2 2.04m-1.48 1.35l-2.2 2.04m-1.48 1.35l-2.2 2.04m-1.48 1.35l-2.2 2.04m-1.48 1.35l-2.2 2.04m-1.48 1.35l-2.2 2.03m-1.5 1.37l-2.2 2.03m-1.47 1.36l-2.2 2.04m-1.48 1.36l-2.2 2.04m-1.48 1.36l-2.2 2.04m-1.48 1.36l-2.22 2.03m-1.47 1.37l-2.2 2.03m-1.47 1.36l-2.2 2.04m-1.5 1.36l-2.2 2.04m-1.47 1.36l-2.2 2.04m-1.48 1.36l-2.2 2.04m-1.48 1.35l-2.2 2.04m-1.48 1.36l-2.2 2.04m-1.5 1.36l-2.2 2.04m-1.47 1.36l-2.2 2.04m-1.48 1.36l-2.2 2.04m-1.48 1.35l-2.22 2.05m-1.47 1.36l-2.2 2.05m-1.47 1.36l-2.2 2.05m-1.48 1.36l-2.2 2.05m-1.5 1.36l-2.2 2.05m-1.47 1.35l-2.2 2.04m-1.48 1.36l-2.2 2.04m-1.48 1.36l-2.2 2.04m-1.48 1.36l-2.2 2.04m-1.48 1.36l-2.2 2.03m-1.5 1.36l-2.2 2.03m-1.47 1.36l-2.22 2.03m-1.47 1.36l-2.2 2.03m-1.47 1.36l-2.2 2.03m-1.48 1.36l-2.2 2.03m-1.48 1.35l-2.2 2.04m-1.5 1.36l-2.2 2.04m-1.47 1.36l-2.2 2.04m-1.48 1.36l-2.2 2.04m-1.48 1.36l-2.2 2.03m-1.48 1.37l-2.2 2.04m-1.48 1.37l-2.2 2.04m-1.5 1.37l-2.2 2.04m-1.47 1.37l-2.2 2.04m-1.47 1.37l-2.2 2.03m-1.48 1.36l-2.2 2.04m-1.48 1.36l-2.2 2.04m-1.48 1.36l-2.22 2.04m-1.47 1.36l-2.2 2.04m-1.48 1.36l-2.2 2.03m-1.48 1.35l-2.2 2.04m-1.48 1.35l-2.2 2.04m-1.48 1.35l-2.2 2.04m-1.48 1.35l-2.2 2.04m-1.5 1.35l-2.2 2.03m-1.47 1.36l-2.2 2.04m-1.48 1.36l-2.2 2.04m-1.48 1.36l-2.2 2.04m-1.48 1.36l-2.22 2.04m-1.47 1.36l-2.2 2.03m-1.47 1.36l-2.2 2.04m-1.5 1.36l-2.2 2.04m-1.47 1.36l-2.2 2.04m-1.48 1.36l-2.2 2.04m-1.48 1.36l-2.2 2.03m-1.48 1.36l-2.2 2.04m-1.48 1.36l-2.2 2.04m-1.5 1.36l-2.2 2.04m-1.47 1.36l-2.2 2.04m-1.48 1.36l-2.22 2.03m-1.47 1.36l-2.2 2.05m-1.47 1.36l-2.2 2.05m-1.48 1.36l-2.2 2.05m-1.5 1.36l-2.2 2.05m-1.47 1.36l-2.2 2.04M2637-93.2l-2.2 2.04m-1.48 1.36l-2.2 2.04m-1.48 1.36l-2.2 2.04m-1.48 1.36l-2.2 2.04m-1.5 1.35l-2.2 2.03m-1.47 1.36l-2.22 2.03m-1.47 1.36l-2.2 2.03m-1.47 1.36l-2.2 2.03m-1.48 1.36l-2.2 2.03m-1.48 1.35l-2.2 2.04m-1.5 1.36l-2.2 2.04m-1.47 1.36l-2.2 2.04m-1.48 1.36l-2.2 2.04m-1.48 1.36l-2.2 2.04m-1.48 1.35l-2.2 2.04m-1.48 1.37l-2.2 2.04m-1.5 1.37l-2.2 2.04m-1.47 1.37l-2.2 2.04m-1.47 1.37l-2.2 2.04m-1.48 1.36l-2.2 2.04m-1.48 1.36l-2.2 2.04m-1.48 1.36l-2.22 2.04m-1.47 1.36l-2.2 2.04m-1.48 1.36l-2.2 2.03m-1.48 1.36l-2.2 2.03m-1.48 1.35l-2.2 2.04m-1.48 1.35l-2.2 2.04m-1.48 1.35L2535.4.6m-1.48 1.35l-2.2 2.04m-1.5 1.34l-2.2 2.04m-1.47 1.36l-2.2 2.04m-1.48 1.36l-2.2 2.04m-1.48 1.36l-2.22 2.04m-1.47 1.36l-2.2 2.04m-1.47 1.35l-2.2 2.04m-1.5 1.36l-2.2 2.04m-1.47 1.36l-2.2 2.04m-1.48 1.36l-2.2 2.04m-1.48 1.36l-2.2 2.04m-1.48 1.35l-2.2 2.04m-1.48 1.36l-2.2 2.04m-1.5 1.36l-2.2 2.04m-1.47 1.36l-2.2 2.04m-1.48 1.36l-2.22 2.03m-1.47 1.36l-2.2 2.05m-1.47 1.36l-2.2 2.05m-1.48 1.36l-2.2 2.05m-1.48 1.36l-2.2 2.05m-1.5 1.36l-2.2 2.04m-1.47 1.36l-2.2 2.04m-1.48 1.36l-2.2 2.04m-1.48 1.36l-2.2 2.04m-1.48 1.36l-2.2 2.04m-1.48 1.36l-2.2 2.03m-1.5 1.36l-2.2 2.03m-1.47 1.36l-2.2 2.03m-1.47 1.36l-2.2 2.03m-1.48 1.36l-2.2 2.03m-1.48 1.36l-2.2 2.02m-1.48 1.36l-2.22 2.04m-1.48 1.36l-2.2 2.04m-1.48 1.36l-2.2 2.04m-1.48 1.36l-2.2 2.04m-1.48 1.36l-2.2 2.04m-1.48 1.35l-2.2 2.04m-1.48 1.37l-2.2 2.04m-1.5 1.37l-2.2 2.04m-1.47 1.37l-2.2 2.04m-1.48 1.37l-2.2 2.03m-1.48 1.36l-2.2 2.04m-1.48 1.36l-2.22 2.04m-1.47 1.36l-2.2 2.04m-1.47 1.36l-2.2 2.04m-1.5 1.36l-2.2 2.03m-1.47 1.35l-2.2 2.04m-1.48 1.35l-2.2 2.04m-1.48 1.35l-2.2 2.04m-1.48 1.35l-2.2 2.04m-1.5 1.35l-2.2 2.03m-1.47 1.36l-2.2 2.04m-1.48 1.36l-1.1 1.02M2969.76-413.92l19.5-4.4-5.94 19.1" stroke="#3a414a" fill="none"/><path d="M2341.7 180l-.72.66.02-.65v-.64l.05-.06z" stroke="#3a414a" stroke-width=".05" fill="#3a414a"/><path d="M2989.48-418.25l-.86 1.23m-1.15 1.64l-1.72 2.46m-1.15 1.65l-1.72 2.46m-1.14 1.63l-1.72 2.46m-1.15 1.64l-1.72 2.46m-1.15 1.64l-1.72 2.46m-1.15 1.65l-1.72 2.46m-1.14 1.65l-1.72 2.47m-1.14 1.64l-1.73 2.46m-1.14 1.64l-1.72 2.47m-1.14 1.64l-1.72 2.46m-1.15 1.64l-1.73 2.47m-1.15 1.64l-1.72 2.46m-1.15 1.64l-1.72 2.47m-1.14 1.64l-1.73 2.45m-1.15 1.65l-1.72 2.46m-1.15 1.64l-1.72 2.47m-1.15 1.64l-1.72 2.47m-1.15 1.64l-1.7 2.48m-1.15 1.64l-1.72 2.46m-1.15 1.64l-1.72 2.47m-1.15 1.63l-1.7 2.46m-1.16 1.63l-1.72 2.47m-1.15 1.64l-1.72 2.46m-1.14 1.65l-1.72 2.46m-1.14 1.65l-1.72 2.47m-1.15 1.64l-1.72 2.46m-1.15 1.64l-1.72 2.47m-1.15 1.64l-1.72 2.46m-1.14 1.64l-1.72 2.47m-1.14 1.64l-1.72 2.46m-1.15 1.64l-1.72 2.47m-1.14 1.64l-1.72 2.45m-1.15 1.64l-1.73 2.46m-1.15 1.64l-1.72 2.46m-1.14 1.65l-1.72 2.47m-1.15 1.64l-1.73 2.47m-1.15 1.65l-1.72 2.46m-1.15 1.64l-1.72 2.47m-1.15 1.63l-1.72 2.46m-1.15 1.63l-1.7 2.47m-1.15 1.64l-1.72 2.46m-1.15 1.64l-1.72 2.47m-1.15 1.65l-1.7 2.46m-1.16 1.66l-1.72 2.46m-1.14 1.64l-1.73 2.47m-1.14 1.64l-1.7 2.46m-1.16 1.64l-1.72 2.47m-1.15 1.64l-1.72 2.46m-1.15 1.64l-1.72 2.47m-1.15 1.64l-1.72 2.45m-1.13 1.65l-1.73 2.46m-1.14 1.64l-1.72 2.46m-1.15 1.65l-1.72 2.47m-1.14 1.64l-1.72 2.47m-1.15 1.65l-1.73 2.46m-1.14 1.64l-1.72 2.47m-1.14 1.63l-1.72 2.46m-1.15 1.63l-1.73 2.47m-1.15 1.64l-1.72 2.46m-1.15 1.64l-1.72 2.47m-1.14 1.65l-1.74 2.46m-1.14 1.66l-1.72 2.46m-1.15 1.64l-1.72 2.46m-1.15 1.65l-1.72 2.46m-1.15 1.64l-1.7 2.47m-1.16 1.64l-1.72 2.46m-1.14 1.64l-1.72 2.47m-1.15 1.64l-1.7 2.45m-1.16 1.64l-1.72 2.46m-1.15 1.64l-1.72 2.46m-1.15 1.64l-1.72 2.47m-1.14 1.64l-1.73 2.47m-1.13 1.65l-1.72 2.46m-1.15 1.64l-1.72 2.47m-1.15 1.63l-1.72 2.46m-1.14 1.63l-1.72 2.47m-1.14 1.64l-1.73 2.46m-1.14 1.64l-1.72 2.47m-1.14 1.65l-1.72 2.46m-1.15 1.65l-1.73 2.47m-1.15 1.64l-1.72 2.46m-1.14 1.65l-1.73 2.46m-1.14 1.64l-1.73 2.46m-1.15 1.65l-1.72 2.46m-1.15 1.64l-1.72 2.46m-1.15 1.65l-1.72 2.45m-1.15 1.64l-1.7 2.46m-1.15 1.64l-1.72 2.46m-1.15 1.64l-1.72 2.47M2732.2-50l-1.7 2.47m-1.16 1.65l-1.72 2.46m-1.15 1.64l-1.72 2.46m-1.14 1.65l-1.7 2.46m-1.16 1.63l-1.72 2.46m-1.15 1.64l-1.72 2.46m-1.15 1.64l-1.72 2.47m-1.15 1.65l-1.72 2.46m-1.14 1.65l-1.72 2.47m-1.14 1.64l-1.72 2.46m-1.15 1.64l-1.72 2.47m-1.14 1.64l-1.72 2.46m-1.15 1.65l-1.73 2.46m-1.15 1.64l-1.72 2.46m-1.14 1.65l-1.72 2.45m-1.15 1.64l-1.73 2.46m-1.15 1.64l-1.72 2.46m-1.15 1.64l-1.72 2.47m-1.15 1.64l-1.72 2.47m-1.14 1.64L2676 30.5m-1.15 1.64l-1.72 2.46m-1.15 1.65l-1.72 2.46m-1.15 1.63l-1.7 2.46m-1.16 1.64l-1.72 2.46m-1.14 1.64l-1.73 2.47m-1.14 1.65l-1.7 2.46m-1.16 1.65l-1.72 2.47m-1.15 1.64l-1.72 2.46m-1.15 1.64l-1.72 2.47m-1.14 1.64l-1.73 2.46m-1.13 1.64l-1.72 2.47m-1.15 1.64l-1.72 2.46m-1.15 1.65l-1.72 2.45m-1.14 1.64l-1.72 2.45m-1.15 1.65l-1.73 2.46m-1.14 1.64l-1.72 2.47m-1.14 1.64l-1.72 2.47m-1.15 1.64l-1.73 2.48m-1.15 1.64l-1.72 2.46m-1.15 1.64l-1.72 2.47m-1.14 1.63l-1.74 2.46m-1.14 1.63l-1.72 2.47m-1.15 1.64l-1.72 2.46m-1.15 1.65l-1.72 2.46m-1.15 1.65l-1.7 2.47m-1.16 1.64l-1.72 2.46m-1.14 1.64l-1.72 2.47m-1.15 1.64l-1.7 2.46m-1.16 1.64l-1.72 2.47m-1.15 1.64l-1.72 2.46m-1.15 1.65l-1.72 2.45m-1.14 1.64l-1.72 2.45m-1.15 1.65l-1.72 2.46m-1.15 1.64l-1.72 2.47m-1.15 1.64l-1.72 2.47m-1.14 1.64l-1.72 2.48m-1.14 1.64l-1.72 2.46m-1.15 1.64l-1.72 2.47m-1.14 1.63l-1.72 2.46m-1.15 1.63l-1.73 2.47m-1.15 1.64l-1.72 2.46m-1.14 1.64l-1.73 2.47m-1.14 1.65l-1.73 2.46m-1.15 1.66l-1.72 2.46m-1.15 1.64l-1.72 2.47m-1.15 1.64l-1.72 2.46m-1.14 1.64l-1.73 2.47m-1.15 1.64l-1.72 2.46m-1.15 1.64l-1.72 2.47m-1.15 1.64l-1.7 2.45m-1.16 1.65l-1.72 2.46m-1.15 1.64l-1.72 2.46m-1.14 1.65l-1.7 2.47m-1.16 1.64l-1.72 2.48m-1.15 1.64l-1.72 2.46m-1.15 1.64l-1.72 2.47m-1.15 1.63l-1.72 2.46m-1.14 1.63l-1.72 2.47m-1.14 1.64l-1.72 2.46m-1.15 1.65l-1.72 2.46m-1.14 1.65l-1.72 2.46m-1.15 1.66l-1.73 2.46m-1.14 1.64l-1.73 2.46m-1.14 1.65l-1.72 2.46m-1.15 1.64l-1.73 2.46m-1.15 1.65l-1.72 2.46m-1.15 1.64l-1.72 2.47m-1.15 1.64l-1.72 2.45m-1.14 1.64l-1.73 2.46m-1.15 1.64l-1.72 2.46m-1.15 1.64l-1.72 2.47m-1.15 1.64l-1.7 2.47m-1.16 1.65l-1.72 2.46m-1.14 1.64l-1.72 2.47m-1.15 1.63l-1.7 2.46m-1.16 1.63l-1.72 2.47m-1.15 1.64l-1.72 2.46m-1.15 1.64l-1.72 2.47m-1.14 1.65l-1.73 2.46m-1.13 1.65l-1.72 2.47m-1.15 1.64l-1.72 2.46m-1.15 1.65l-1.72 2.46m-1.14 1.64l-1.72 2.46m-1.15 1.65l-1.73 2.46m-1.14 1.64l-1.72 2.47m-1.14 1.64l-1.72 2.45m-1.15 1.64l-1.73 2.46m-1.15 1.64l-1.72 2.46m-1.15 1.64l-1.72 2.47m-1.14 1.64l-1.74 2.47m-1.14 1.64l-1.72 2.48m-1.15 1.64l-1.72 2.46m-1.15 1.65l-1.72 2.46m-1.15 1.63l-1.7 2.46m-1.16 1.64l-1.72 2.46m-1.14 1.64l-1.72 2.47m-1.15 1.65l-1.7 2.46m-1.16 1.65l-1.72 2.47m-1.15 1.64l-1.72 2.46m-1.14 1.64l-1.72 2.47m-1.14 1.64l-1.72 2.46m-1.15 1.65l-1.72 2.46m-1.15 1.64l-1.72 2.47m-1.15 1.64l-1.72 2.45m-1.14 1.64l-1.72 2.46m-1.14 1.64l-1.72 2.46m-1.15 1.64l-1.72 2.47m-1.14 1.64l-1.72 2.47m-1.15 1.64l-1.73 2.48m-1.15 1.64l-1.72 2.46m-1.14 1.65l-1.72 2.46m-1.15 1.63l-1.73 2.46m-1.15 1.64l-1.72 2.46m-1.15 1.64l-1.72 2.46m-1.15 1.65l-1.72 2.46m-1.14 1.65l-1.73 2.47m-1.15 1.64l-.86 1.23M2971.3-409.7l18.13-8.48-1.72 19.93" stroke="#3a414a" fill="none"/><path d="M2341.68 509.85l-.7 1.02.02-.86v-.63z" stroke="#3a414a" stroke-width=".05" fill="#3a414a"/><path d="M2989.54-418.22l-.77 1.3m-1 1.7l-1.54 2.6m-1 1.7l-1.54 2.58m-1.03 1.72l-1.52 2.57m-1.02 1.72l-1.53 2.58m-1 1.72l-1.54 2.57m-1 1.72l-1.54 2.58m-1.02 1.72l-1.52 2.57m-1.02 1.72l-1.52 2.58m-1.02 1.7l-1.53 2.6m-1.02 1.7l-1.53 2.6m-1.02 1.7l-1.52 2.58m-1 1.73l-1.53 2.58m-1.02 1.72l-1.53 2.58m-1 1.72l-1.54 2.57m-1 1.7l-1.54 2.6m-1.02 1.7l-1.52 2.58m-1.02 1.72l-1.53 2.58m-1 1.72l-1.54 2.57m-1 1.72l-1.53 2.57m-1.02 1.72l-1.52 2.56m-1.02 1.72l-1.5 2.58m-1.03 1.72l-1.53 2.57m-1 1.72l-1.54 2.58m-1.02 1.7l-1.52 2.6m-1.02 1.7l-1.52 2.6m-1.02 1.7l-1.52 2.58m-1.02 1.72l-1.53 2.57m-1 1.72l-1.54 2.58m-1.03 1.72l-1.52 2.57m-1.02 1.73l-1.52 2.58m-1 1.73l-1.54 2.57m-1 1.72l-1.54 2.58m-1.02 1.7l-1.52 2.6m-1.02 1.7l-1.52 2.6m-1.02 1.7l-1.53 2.58m-1.02 1.72l-1.53 2.58m-1 1.7l-1.54 2.6m-1 1.7l-1.53 2.58m-1.02 1.72l-1.53 2.58m-1 1.72l-1.54 2.57m-1 1.72l-1.54 2.58m-1.02 1.72l-1.52 2.57m-1.02 1.72l-1.52 2.58m-1.02 1.72l-1.53 2.57m-1 1.72l-1.53 2.58m-1 1.7l-1.54 2.6m-1.02 1.7l-1.5 2.6m-1.03 1.7l-1.53 2.58m-1 1.73l-1.54 2.58m-1 1.72l-1.54 2.58m-1.02 1.72l-1.52 2.57m-1.02 1.7l-1.53 2.6m-1 1.7l-1.54 2.58m-1 1.72l-1.54 2.58m-1.03 1.72l-1.52 2.57m-1.02 1.72l-1.52 2.57m-1 1.72l-1.54 2.56m-1 1.72l-1.54 2.58m-1.02 1.72l-1.52 2.57m-1.02 1.72l-1.52 2.58m-1.02 1.7l-1.52 2.6m-1.02 1.7l-1.53 2.6m-1 1.7l-1.54 2.58m-1 1.72l-1.53 2.58m-1.02 1.7l-1.52 2.6m-1.02 1.7l-1.52 2.58m-1 1.73l-1.54 2.58m-1.02 1.73l-1.52 2.57m-1.02 1.72l-1.52 2.58m-1.02 1.7l-1.53 2.6m-1 1.7l-1.53 2.6m-1 1.7l-1.54 2.58m-1.02 1.72l-1.5 2.58m-1.03 1.7l-1.53 2.6m-1 1.7l-1.54 2.6m-1 1.7l-1.54 2.58m-1.02 1.72l-1.52 2.57m-1.02 1.72l-1.52 2.58m-1.02 1.72l-1.53 2.57m-1 1.72l-1.54 2.58m-1.03 1.72l-1.52 2.57m-1.02 1.72l-1.52 2.58m-1 1.7l-1.54 2.6m-1 1.7l-1.54 2.6m-1 1.7l-1.54 2.58m-1.02 1.73l-1.52 2.58m-1.02 1.72l-1.52 2.58m-1.02 1.72l-1.53 2.57m-1 1.7l-1.54 2.6m-1 1.7l-1.53 2.58m-1.02 1.72l-1.52 2.58m-1.02 1.72l-1.52 2.57m-1 1.72l-1.54 2.57m-1.02 1.72l-1.52 2.56m-1.02 1.72l-1.52 2.58m-1.02 1.7l-1.52 2.6m-1.02 1.7l-1.53 2.6m-1 1.7l-1.54 2.58m-1.02 1.72l-1.5 2.57m-1.03 1.72l-1.52 2.58m-1.02 1.72l-1.53 2.57m-1 1.72l-1.54 2.58m-1.02 1.72l-1.52 2.57m-1.02 1.73l-1.52 2.58m-1.02 1.73l-1.53 2.57m-1 1.72l-1.54 2.58m-1.03 1.72l-1.52 2.57m-1.02 1.7l-1.52 2.6m-1 1.7l-1.53 2.58m-1.02 1.72l-1.53 2.58m-1 1.7l-1.54 2.6m-1.02 1.7l-1.52 2.6m-1.02 1.7l-1.52 2.58m-1.02 1.72l-1.53 2.57m-1 1.72l-1.54 2.58m-1 1.72l-1.53 2.57m-1.02 1.72l-1.52 2.58m-1.02 1.72l-1.52 2.57m-1 1.72l-1.54 2.58m-1 1.72l-1.54 2.57m-1.02 1.72l-1.52 2.58m-1.02 1.7l-1.52 2.6m-1.02 1.7l-1.53 2.6m-1 1.7l-1.54 2.58m-1.02 1.72l-1.5 2.58m-1.03 1.7l-1.52 2.6m-1.02 1.7l-1.53 2.58m-1 1.72l-1.54 2.58m-1.02 1.72l-1.52 2.57m-1.02 1.72l-1.52 2.57m-1.02 1.72l-1.53 2.56m-1 1.72l-1.54 2.58m-1.02 1.72l-1.53 2.57m-1.02 1.72l-1.52 2.58m-1 1.7l-1.53 2.6m-1.02 1.7l-1.53 2.58m-1 1.72l-1.54 2.58m-1 1.72l-1.54 2.57m-1.02 1.72l-1.52 2.58m-1.02 1.72l-1.53 2.57m-1 1.73l-1.54 2.58m-1 1.73l-1.53 2.57m-1.02 1.72l-1.52 2.58m-1.02 1.72l-1.5 2.57m-1.03 1.7l-1.53 2.6m-1 1.7l-1.54 2.58m-1.02 1.72l-1.52 2.58m-1.02 1.7l-1.52 2.6m-1.02 1.7l-1.53 2.6m-1 1.7l-1.54 2.58m-1 1.72l-1.54 2.57m-1.03 1.72l-1.52 2.58m-1.02 1.72l-1.53 2.57m-1 1.72l-1.54 2.58m-1 1.72l-1.54 2.57m-1.02 1.72l-1.52 2.58m-1.02 1.72l-1.52 2.57m-1.02 1.72l-1.53 2.58m-1.02 1.7l-1.53 2.6m-1.02 1.7l-1.52 2.58m-1 1.72l-1.53 2.58m-1.02 1.72l-1.53 2.57m-1 1.7l-1.54 2.6m-1.02 1.7l-1.52 2.58m-1.02 1.72l-1.52 2.58m-1.02 1.72l-1.53 2.57m-1 1.72l-1.54 2.57m-1 1.72l-1.53 2.56m-1.02 1.72l-1.52 2.58m-1.02 1.7l-1.5 2.6m-1.03 1.7l-1.53 2.6m-1 1.7l-1.54 2.58m-1 1.72l-1.54 2.58m-1.02 1.7l-1.52 2.6m-1.02 1.7l-1.53 2.58m-1 1.72l-1.54 2.58m-1 1.72l-1.54 2.57m-1.03 1.73l-1.52 2.58m-1.02 1.73l-1.52 2.57m-1 1.72l-1.54 2.58m-1 1.7l-1.54 2.6m-1.02 1.7l-1.52 2.6m-1.02 1.7l-1.52 2.58m-1.02 1.72l-1.53 2.57m-1.02 1.72l-1.53 2.57m-1 1.72l-1.54 2.56m-1 1.72l-1.53 2.58m-1.02 1.72l-1.53 2.57m-1 1.72l-1.54 2.58m-1 1.72l-1.54 2.57m-1.02 1.72l-1.52 2.58m-1.02 1.72l-1.52 2.57m-1.02 1.72l-1.53 2.58m-1 1.7l-1.53 2.6m-1.02 1.7l-1.52 2.6m-1.02 1.7l-1.5 2.58m-1.03 1.73l-1.53 2.58m-1 1.72l-1.54 2.58m-1 1.72l-1.54 2.57m-1.02 1.7l-1.52 2.6m-1.02 1.7l-1.53 2.58m-1 1.72l-1.54 2.58m-1 1.72l-1.54 2.57m-1.03 1.72l-1.52 2.57m-1.02 1.7l-1.52 2.6m-1 1.7l-1.54 2.6m-1 1.7l-1.54 2.58m-1 1.72l-1.54 2.58m-1.02 1.7l-1.52 2.6m-1.02 1.7l-1.53 2.58m-1.02 1.72l-1.53 2.58m-1 1.72l-1.54 2.57m-1 1.72l-1.53 2.58m-1.02 1.72l-1.52 2.57m-1.02 1.73l-1.52 2.58m-1 1.73l-1.54 2.57m-1.02 1.72l-1.52 2.58m-1.02 1.72l-1.52 2.57m-1.02 1.7l-1.53 2.6m-1 1.7l-1.53 2.58m-1 1.72l-1.54 2.57m-1.02 1.72l-1.5 2.57m-1.03 1.72l-1.53 2.56m-1 1.72l-1.54 2.58m-1 1.72l-1.54 2.57m-1.02 1.72l-1.52 2.58m-1.02 1.72l-1.52 2.57m-1.02 1.72l-1.53 2.58m-1 1.72l-1.54 2.57m-1.03 1.72l-1.52 2.58m-1.02 1.7l-1.52 2.6m-1 1.7l-1.53 2.6m-1.02 1.7l-1.53 2.58m-1 1.73l-1.54 2.58m-1.02 1.72l-1.52 2.58m-1.02 1.72l-1.53 2.57m-1.02 1.7l-1.53 2.6m-1 1.7l-1.54 2.58m-1 1.72l-1.53 2.58m-1.02 1.72l-1.52 2.57m-1.02 1.72l-1.52 2.57m-1 1.7l-1.54 2.6m-1 1.7l-1.54 2.6m-1.02 1.7l-1.52 2.58m-1.02 1.72l-1.53 2.58m-1 1.7l-1.53 2.6m-1 1.7l-1.54 2.6m-1.02 1.7l-1.5 2.58m-1.03 1.72l-1.52 2.57m-1.02 1.72l-1.53 2.58m-1 1.72l-1.54 2.57m-1.02 1.73l-1.52 2.58m-1.02 1.73l-1.52 2.57m-1.02 1.72l-1.53 2.58m-1 1.72l-.78 1.28M2972.06-408.33l17.43-9.8-.23 20" stroke="#3a414a" fill="none"/><path d="M2341.67 677.13l-.7 1.2.03-.98v-.62z" stroke="#3a414a" stroke-width=".05" fill="#3a414a"/><path d="M2341.45-759.78l1.35.65m1.8.87l2.7 1.3m1.8.86l2.68 1.3m1.8.87l2.7 1.3m1.8.87l2.7 1.3m1.8.87l2.68 1.3m1.8.88l2.7 1.3m1.8.87l2.7 1.3m1.8.87l2.68 1.3m1.8.86l2.7 1.3m1.8.87l2.7 1.3m1.8.87l2.68 1.3m1.8.87l2.7 1.3m1.8.86l2.7 1.3m1.8.87l2.68 1.3m1.8.87l2.7 1.3m1.8.86l2.7 1.3m1.8.87l2.68 1.3m1.8.87l2.7 1.3m1.8.87l2.7 1.3m1.8.87l2.68 1.3m1.8.87l2.7 1.3m1.8.88l2.7 1.3m1.8.86l2.68 1.3m1.8.87l2.7 1.3m1.8.88l2.7 1.3m1.8.87l2.68 1.3m1.8.87l2.7 1.3m1.8.87l2.7 1.3m1.8.86l2.68 1.3m1.8.86l2.7 1.3m1.8.87l2.7 1.3m1.8.86l2.68 1.3m1.8.87l2.7 1.3m1.8.87l2.7 1.3m1.8.87l2.68 1.3m1.8.87l2.7 1.3m1.8.86l2.7 1.3m1.8.87l2.68 1.3m1.8.87l2.7 1.3m1.8.87l2.7 1.3m1.8.88l2.68 1.3m1.8.87l2.7 1.3m1.8.87l2.7 1.3m1.8.87l2.68 1.3m1.8.85l2.7 1.3m1.8.87l2.7 1.3m1.8.87l2.68 1.3m1.8.86l2.7 1.3m1.8.87l2.7 1.3m1.8.87l2.68 1.3m1.8.87l2.7 1.3m1.8.86l2.7 1.3m1.8.87l2.68 1.3m1.8.87l2.7 1.3m1.8.87l2.7 1.3m1.8.87l2.68 1.3m1.8.88l2.7 1.3m1.8.87l2.7 1.3m1.8.86l2.68 1.32m1.8.86l2.7 1.3m1.8.87l2.7 1.3m1.8.87l2.68 1.3m1.8.87l2.7 1.3m1.8.86l2.7 1.3m1.8.87l2.68 1.3m1.8.86l2.7 1.3m1.8.86l2.7 1.3m1.8.87l2.68 1.3m1.8.87l2.7 1.3m1.8.87l2.7 1.3m1.8.87l2.68 1.3m1.8.87l2.7 1.3m1.8.87l2.7 1.3m1.8.87l2.68 1.3m1.8.87l2.7 1.3m1.8.88l2.7 1.3m1.8.87l2.68 1.3m1.8.87l2.7 1.3m1.8.87l2.7 1.3m1.8.85l2.68 1.3m1.8.87l2.7 1.3m1.8.87l2.7 1.3m1.8.86l2.68 1.3m1.8.87l2.7 1.3m1.8.87l2.7 1.3m1.8.87l2.68 1.3m1.8.86l2.7 1.3m1.8.87l2.7 1.3m1.8.87l2.68 1.3m1.8.87l2.7 1.3m1.8.87l2.7 1.3m1.8.88l2.68 1.3m1.8.87l2.7 1.3m1.8.86l2.7 1.32m1.8.86l2.68 1.3m1.8.87l2.7 1.3m1.8.87l2.7 1.3m1.8.87l2.68 1.3m1.8.86l2.7 1.3m1.8.87l2.7 1.3m1.8.86l2.68 1.3m1.8.86l2.7 1.3m1.8.87l2.7 1.3m1.8.87l2.68 1.3m1.8.87l2.7 1.3m1.8.87l2.7 1.3m1.8.87l2.68 1.3m1.8.87l2.7 1.3m1.8.87l2.7 1.3m1.8.87l2.68 1.3m1.8.88l2.7 1.3m1.8.87l2.7 1.3m1.8.87l2.68 1.3m1.8.87l2.7 1.3m1.8.85l1.34.66" stroke="#3a414a" fill="none"/><path d="M2341.67-760.2l-.4.85-.3-.13.03-.5v-.55z" stroke="#3a414a" stroke-width=".05" fill="#3a414a"/><path d="M2846.85-526.97l11.25 16.54-19.95 1.47M2341.5-589.92l1.47.22m1.97.3l2.95.47m1.96.3l2.96.46m1.97.3l2.94.46m1.97.3l2.97.45m1.97.3l2.95.46m1.96.3l2.95.47m1.98.3l2.96.46m1.97.3l2.96.46m1.97.3l2.96.45m1.96.3l2.95.46m1.98.3l2.95.47m1.97.3l2.96.46m1.97.3l2.95.46m1.97.3l2.96.45m1.98.3l2.95.46m1.97.3l2.95.47m1.97.3l2.96.46m1.97.3l2.95.46m1.97.3l2.96.45m1.96.3l2.95.46m1.97.32l2.95.45m1.97.3l2.96.46m1.97.3l2.95.46m1.97.3l2.95.45m1.96.3l2.97.47m1.97.3l2.95.46m1.96.3l2.96.46m1.97.3l2.94.46m1.97.3l2.96.46m1.97.3l2.96.46m1.96.3l2.95.46m1.98.3l2.96.46m1.97.3l2.96.46m1.97.3l2.96.46m1.95.3l2.96.46m1.98.3l2.95.46m1.97.3l2.96.46m1.97.3l2.95.46m1.97.3l2.95.46m1.97.3l2.96.46m1.97.3l2.95.46m1.97.3l2.96.46m1.97.3l2.95.46m1.97.3l2.95.46m1.97.3l2.95.47m1.97.3l2.95.45m1.97.3l2.96.47m1.96.3l2.96.46m1.97.3l2.94.47m1.97.3l2.97.46m1.97.3l2.95.46m1.96.3l2.95.45m2 .3l2.94.46m1.97.3l2.96.47m1.97.3l2.96.46m1.96.3l2.95.46m1.98.3l2.96.45m1.96.3l2.96.46m1.97.32l2.95.45m1.97.3l2.96.46m1.98.3l2.95.46m1.97.3l2.95.45m1.97.3l2.96.46m1.97.32l2.95.45m1.97.3l2.96.46m1.97.3l2.95.46m1.97.3l2.95.46m1.97.3l2.96.46m1.97.3l2.95.46m1.97.3l2.95.46m1.96.3l2.97.46m1.97.3l2.95.46m1.96.3l2.96.46m1.97.3l2.94.46m1.97.3l2.96.46m1.97.3l2.96.46m1.96.3l2.95.46m1.98.3l2.96.46m1.97.3l2.96.46m1.97.3l2.96.46m1.95.3l2.96.46m1.98.3l2.95.46m1.97.3l2.96.46m1.97.3l2.95.46m1.97.3l2.95.46m1.97.3l2.96.46m1.97.3l2.95.46m1.97.3l2.96.46m1.97.3l2.95.47m1.97.3l2.95.45m1.97.3l2.95.46m1.97.3l2.95.47m1.97.3l2.96.46m1.97.3l2.95.46m1.97.3l2.94.45m1.97.3l2.97.46m1.97.3l2.95.47m1.96.3l2.96.46m1.97.3l2.94.46m1.97.3l2.96.45m1.97.3l2.96.46m1.96.3l2.95.47m1.98.3l2.96.46m1.97.3l2.96.46m1.97.3l1.48.22" stroke="#3a414a" fill="none"/><path d="M2341.58-590.4l-.15.95-.44-.07v-.95zM2859-510.48v.96l-.58-.1.15-.93z" stroke="#3a414a" stroke-width=".05" fill="#3a414a"/><path d="M2341.5-420.1l1.47-.24m1.97-.34l2.95-.52m1.96-.34l2.96-.5m1.97-.35l2.94-.5m1.97-.35l2.97-.5m1.97-.36l2.95-.52m1.96-.34l2.95-.52m1.98-.34l2.96-.5m1.97-.35l2.96-.52m1.97-.33l2.95-.5m1.97-.35l2.96-.52m1.98-.34l2.95-.5m1.97-.36l2.96-.5m1.97-.35l2.95-.5m1.97-.36l2.96-.52m1.97-.34l2.96-.5m1.97-.36l2.95-.5m1.97-.35l2.96-.52m1.97-.33l2.95-.5m1.97-.35l2.95-.52m1.97-.34l2.95-.5m1.97-.36l2.95-.5m1.97-.35l2.96-.5m1.97-.36l2.95-.52m1.97-.34l2.95-.5m1.96-.36l2.97-.5m1.97-.35l2.95-.52m1.96-.33l2.96-.5m1.97-.35l2.94-.52m1.97-.34l2.96-.5m1.97-.35l2.96-.5m1.96-.35l2.95-.5m1.98-.35l2.96-.52m1.97-.34l2.96-.5m1.97-.36l2.95-.5m1.97-.35l2.96-.52m1.98-.33l2.95-.5m1.97-.35l2.96-.52m1.97-.34l2.95-.5m1.97-.35l2.95-.5m1.97-.35l2.96-.5m1.97-.35l2.95-.52m1.97-.34l2.96-.5m1.96-.36l2.96-.5m1.97-.35l2.95-.5m1.97-.36l2.95-.5m1.97-.35l2.95-.52m1.97-.34l2.95-.5m1.96-.35l2.96-.5m1.97-.35l2.94-.5m1.97-.36l2.97-.52m1.97-.34l2.95-.5m1.96-.36l2.95-.5m2-.35l2.94-.5m1.97-.36l2.96-.5m1.97-.35l2.96-.5m1.96-.36l2.95-.5m1.98-.35l2.96-.5m1.97-.35l2.96-.5m1.97-.35l2.95-.52m1.97-.34l2.96-.5m1.98-.35l2.95-.53m1.97-.34l2.95-.5m1.97-.36l2.96-.5m1.97-.35l2.95-.52m1.97-.34l2.96-.5m1.97-.35l2.95-.5m1.97-.35l2.95-.5m1.97-.35l2.96-.52m1.97-.34l2.95-.5m1.97-.35l2.95-.53m1.97-.34l2.95-.5m1.97-.36l2.95-.5m1.96-.35l2.96-.52m1.97-.34l2.94-.5m1.97-.35l2.97-.5m1.97-.35l2.95-.5m1.96-.35l2.95-.52m1.98-.34l2.96-.5m1.97-.35l2.96-.53m1.97-.34l2.96-.5m1.95-.36l2.96-.5m1.98-.35l2.95-.5m1.97-.36l2.96-.5m1.97-.35l2.95-.5m1.97-.35l2.96-.5m1.97-.35l2.96-.52m1.97-.34l2.95-.5m1.97-.35l2.96-.53m1.97-.34l2.95-.5m1.97-.35l2.95-.52m1.97-.34l2.95-.5m1.97-.36l2.95-.5m1.97-.35l2.96-.5m1.97-.35l2.95-.5m1.97-.35l2.94-.52m1.98-.34l2.95-.5m1.97-.35l2.95-.53m1.96-.34l2.96-.5m1.97-.35l2.94-.52m1.97-.34l2.96-.5m1.97-.36l2.96-.5m1.96-.35l2.95-.5m1.98-.35l2.96-.5m1.97-.35l2.96-.52m1.97-.34l1.48-.25" stroke="#3a414a" fill="none"/><path d="M2341.6-419.62l-.6.1v-.95l.42-.08zM2859-510v.48l-.42.08-.17-.94.6-.1z" stroke="#3a414a" stroke-width=".05" fill="#3a414a"/><path d="M2341.45-250.22l1.33-.68m1.8-.9l2.66-1.33m1.8-.9l2.66-1.34m1.78-.9l2.68-1.34m1.78-.9l2.67-1.35m1.8-.9l2.67-1.33m1.8-.9l2.66-1.34m1.78-.9l2.7-1.34m1.77-.9l2.68-1.34m1.78-.9l2.68-1.33m1.8-.9l2.66-1.34m1.78-.9l2.68-1.34m1.78-.9l2.68-1.35m1.78-.9l2.68-1.33m1.78-.9l2.67-1.34m1.78-.9l2.67-1.34m1.78-.9l2.68-1.34m1.8-.9l2.67-1.33m1.78-.9l2.68-1.34m1.78-.9l2.68-1.34m1.8-.9l2.66-1.35m1.78-.9l2.68-1.33m1.78-.9l2.68-1.34m1.78-.9l2.67-1.34m1.8-.9l2.67-1.34m1.78-.9l2.68-1.33m1.78-.9l2.7-1.34m1.77-.9l2.68-1.34m1.78-.9l2.67-1.35m1.8-.9l2.66-1.33m1.78-.9l2.68-1.34m1.78-.9l2.68-1.34m1.78-.9l2.67-1.34m1.8-.9l2.66-1.33m1.78-.9l2.67-1.34m1.78-.9l2.68-1.34m1.8-.9l2.66-1.35m1.8-.9l2.66-1.33m1.8-.9l2.66-1.34m1.78-.9l2.68-1.34m1.78-.9l2.68-1.34m1.78-.9l2.67-1.33m1.8-.9l2.66-1.34m1.8-.9l2.67-1.34m1.78-.9l2.68-1.35m1.78-.9l2.7-1.33m1.77-.9l2.67-1.34m1.8-.9l2.66-1.34m1.78-.9l2.68-1.34m1.78-.9l2.68-1.33m1.78-.9l2.68-1.34m1.78-.9l2.67-1.34m1.8-.9l2.66-1.35m1.77-.9l2.68-1.33m1.78-.9l2.68-1.34m1.8-.9l2.66-1.34m1.8-.9l2.66-1.34m1.78-.9l2.68-1.33m1.78-.9l2.68-1.34m1.78-.9l2.68-1.34m1.78-.9l2.67-1.35m1.8-.9l2.66-1.33m1.8-.9l2.67-1.34m1.78-.9l2.68-1.34m1.78-.9l2.68-1.34m1.8-.9l2.66-1.33m1.78-.9l2.68-1.34m1.78-.9l2.68-1.34m1.78-.9l2.68-1.35m1.78-.9l2.67-1.33m1.8-.9l2.66-1.34m1.78-.9l2.7-1.34m1.77-.9l2.68-1.34m1.78-.9l2.67-1.33m1.8-.9l2.66-1.34m1.8-.9l2.66-1.34m1.78-.9l2.68-1.35m1.78-.9l2.68-1.33m1.78-.9l2.67-1.34m1.78-.9l2.67-1.34m1.78-.9l2.68-1.34m1.8-.9l2.67-1.33m1.78-.9l2.67-1.34m1.8-.9l2.66-1.34m1.8-.9l2.66-1.35m1.78-.9l2.68-1.33m1.78-.9l2.68-1.34m1.78-.9l2.67-1.34m1.8-.9l2.67-1.34m1.78-.9l2.68-1.33m1.78-.9l2.7-1.34m1.77-.9l2.68-1.34m1.78-.9l2.67-1.35m1.8-.9l2.66-1.33m1.78-.9l2.68-1.34m1.78-.9l2.68-1.34m1.78-.9l2.67-1.34m1.8-.9l2.66-1.33m1.78-.9l2.67-1.34m1.78-.9l2.68-1.34m1.8-.9l2.66-1.35m1.8-.9l2.66-1.33m1.8-.9l2.66-1.34m1.78-.9l2.68-1.34m1.78-.9l2.68-1.34m1.78-.9l2.67-1.33m1.8-.9l2.66-1.34m1.8-.9l2.67-1.34m1.78-.9l2.68-1.35m1.78-.9l2.7-1.33m1.77-.9l2.67-1.34m1.8-.9l2.66-1.34m1.78-.9l2.68-1.34m1.78-.9l2.68-1.33m1.78-.9l2.67-1.34m1.8-.9l2.66-1.34m1.8-.9l1.32-.68" stroke="#3a414a" fill="none"/><path d="M2341.67-249.8l-.7.34.03-.53v-.53l.24-.13zM2859-510v.53l-.24.13-.43-.85.68-.34z" stroke="#3a414a" stroke-width=".05" fill="#3a414a"/><path d="M2341.3-1525.3l.85 1.22m1.14 1.64l1.72 2.45m1.14 1.64l1.72 2.46m1.15 1.63l1.72 2.45m1.15 1.64l1.72 2.45m1.15 1.63l1.72 2.46m1.14 1.63l1.72 2.44m1.14 1.64l1.72 2.45m1.15 1.63l1.72 2.46m1.14 1.63l1.72 2.45m1.15 1.64l1.73 2.45m1.15 1.62l1.72 2.45m1.14 1.64l1.72 2.46m1.15 1.64l1.73 2.45m1.15 1.63l1.72 2.45m1.15 1.64l1.72 2.45m1.15 1.64l1.72 2.45m1.14 1.64l1.73 2.45m1.15 1.63l1.72 2.45m1.15 1.64l1.72 2.45m1.15 1.63l1.7 2.45m1.16 1.64l1.72 2.44m1.14 1.63l1.73 2.46m1.14 1.63l1.7 2.45m1.16 1.65l1.72 2.45m1.15 1.63l1.72 2.46m1.15 1.62l1.72 2.45m1.15 1.64l1.72 2.46m1.13 1.63l1.72 2.45m1.15 1.63l1.72 2.45m1.15 1.64l1.72 2.45m1.14 1.63l1.72 2.46m1.15 1.64l1.73 2.45m1.14 1.63l1.72 2.45m1.14 1.63l1.72 2.47m1.15 1.63l1.73 2.45m1.15 1.64l1.72 2.44m1.15 1.63l1.72 2.45m1.14 1.64l1.74 2.45m1.14 1.65l1.72 2.45m1.15 1.63l1.72 2.45m1.15 1.64l1.72 2.45m1.15 1.64l1.7 2.46m1.16 1.63l1.72 2.44m1.14 1.64l1.72 2.45m1.15 1.64l1.7 2.45m1.16 1.63l1.72 2.45m1.15 1.64l1.72 2.45m1.15 1.63l1.72 2.45m1.14 1.63l1.72 2.46m1.15 1.64l1.72 2.45m1.15 1.63l1.72 2.46m1.15 1.63l1.72 2.45m1.14 1.64l1.72 2.45m1.14 1.64l1.72 2.46m1.15 1.63l1.72 2.45m1.14 1.64l1.72 2.45m1.15 1.63l1.73 2.46m1.15 1.63l1.72 2.44m1.14 1.64l1.73 2.45m1.14 1.63l1.73 2.46m1.15 1.63l1.72 2.45m1.15 1.64l1.72 2.45m1.15 1.62l1.72 2.45m1.14 1.64l1.73 2.46m1.15 1.64l1.72 2.45m1.15 1.63l1.72 2.45m1.15 1.64l1.7 2.45m1.16 1.64l1.72 2.45m1.15 1.64l1.72 2.45m1.14 1.63l1.72 2.45m1.14 1.64l1.72 2.45m1.15 1.63l1.72 2.45m1.15 1.64l1.72 2.44m1.15 1.63l1.72 2.46m1.13 1.63l1.72 2.45m1.15 1.65l1.72 2.45m1.15 1.63l1.72 2.46m1.14 1.62l1.72 2.45m1.15 1.64l1.73 2.46m1.14 1.63l1.73 2.45m1.14 1.63l1.72 2.45m1.15 1.64l1.73 2.45m1.15 1.63l1.72 2.46m1.15 1.64l1.72 2.45m1.14 1.63l1.74 2.45m1.14 1.63l1.72 2.47m1.15 1.63l1.72 2.45m1.15 1.64l1.72 2.44m1.15 1.63l1.7 2.46m1.16 1.63l1.72 2.45m1.14 1.65l1.72 2.45m1.15 1.63l1.7 2.45m1.16 1.64l1.72 2.45m1.15 1.64l1.72 2.46m1.15 1.63l1.72 2.44m1.14 1.64l1.72 2.45m1.15 1.64l1.72 2.45m1.15 1.63l1.72 2.45m1.15 1.64l1.72 2.45m1.14 1.63l1.72 2.45m1.14 1.63l1.73 2.46m1.14 1.64l1.72 2.45m1.14 1.63l1.72 2.46m1.15 1.63l1.73 2.45m1.15 1.64l1.72 2.45m1.14 1.64l1.73 2.46m1.14 1.63l1.73 2.45m1.15 1.64l1.72 2.45m1.15 1.63l1.72 2.46m1.15 1.63l1.72 2.44m1.15 1.64l1.7 2.45m1.15 1.63l1.72 2.46m1.15 1.63l1.72 2.45m1.15 1.64l1.7 2.45m1.16 1.62l1.72 2.46m1.15 1.63l1.72 2.46m1.14 1.64l1.72 2.45m1.14 1.63l1.72 2.45m1.15 1.64l1.72 2.45m1.15 1.64l1.72 2.45m1.15 1.64l1.72 2.45m1.14 1.63l1.72 2.45m1.14 1.64l1.72 2.45m1.15 1.63l1.72 2.45m1.14 1.64l1.72 2.44m1.15 1.64l1.73 2.45m1.14 1.63l1.73 2.45m1.14 1.65l1.72 2.45m1.15 1.63l1.73 2.46m1.15 1.62l1.72 2.45m1.15 1.64l1.72 2.46m1.15 1.63l1.72 2.45m1.14 1.63l1.72 2.45m1.15 1.64l1.72 2.45m1.15 1.63l1.72 2.46m1.15 1.64l1.7 2.45m1.16 1.63l1.72 2.45m1.14 1.63l1.73 2.47m1.14 1.63l1.7 2.45m1.16 1.64l1.72 2.44m1.15 1.63l1.72 2.46m1.15 1.63l1.72 2.45m1.14 1.65l1.73 2.45m1.13 1.63l1.72 2.46m1.15 1.62l1.72 2.45m1.15 1.64l1.72 2.46m1.14 1.63l1.72 2.44m1.15 1.64l1.73 2.45m1.14 1.64l1.72 2.45m1.14 1.63l1.72 2.45m1.15 1.64l1.73 2.45m1.15 1.63l1.72 2.45m1.15 1.63l1.72 2.46m1.14 1.64l1.74 2.45m1.14 1.63l1.72 2.46m1.15 1.63l1.72 2.45m1.15 1.64l1.72 2.45m1.15 1.64l1.7 2.46m1.15 1.63l1.73 2.45m1.14 1.64l1.72 2.45m1.15 1.63l1.7 2.46m1.16 1.63l1.72 2.44m1.15 1.64l1.72 2.45m1.14 1.63l1.72 2.46m1.14 1.63l1.72 2.45m1.15 1.64l1.72 2.45m1.15 1.62l1.72 2.46m1.15 1.63l1.72 2.46m1.14 1.64l1.72 2.45m1.14 1.63l1.72 2.46m1.15 1.63l1.72 2.45m1.14 1.64l1.72 2.45m1.15 1.64l1.73 2.45m1.15 1.63l1.72 2.45m1.14 1.64l1.72 2.45m1.15 1.63l1.73 2.45m1.15 1.64l1.72 2.44m1.15 1.64l1.72 2.45m1.15 1.63l1.72 2.45m1.14 1.65l1.73 2.45m1.15 1.63l1.72 2.46m1.15 1.62l1.72 2.45m1.15 1.64l1.7 2.46m1.16 1.63l1.72 2.45m1.14 1.63l1.73 2.45m1.14 1.64l1.7 2.45m1.16 1.63l1.72 2.46m1.15 1.64l1.72 2.45m1.15 1.63l1.72 2.45m1.15 1.63l1.72 2.47m1.13 1.63l1.72 2.45m1.15 1.64l1.72 2.44m1.15 1.63l1.72 2.46m1.14 1.63l1.72 2.45m1.15 1.65l1.73 2.45m1.14 1.63l1.72 2.46m1.14 1.62l1.72 2.45m1.15 1.64l1.73 2.46m1.15 1.63l1.72 2.44m1.15 1.64l1.72 2.45m1.14 1.64l1.74 2.45m1.14 1.63l1.72 2.45m1.15 1.64l1.72 2.45m1.15 1.63l1.72 2.45m1.15 1.63l1.7 2.46m1.16 1.64l1.72 2.45m1.14 1.64l1.72 2.44m1.15 1.63l1.7 2.45m1.16 1.64l1.72 2.45m1.15 1.64l1.72 2.46m1.15 1.63l1.72 2.45m1.14 1.64l1.72 2.45m1.15 1.63l1.72 2.46m1.15 1.63l1.72 2.44m1.15 1.64l1.72 2.45m1.14 1.63l1.72 2.46m1.14 1.63l1.72 2.45m1.15 1.64l1.72 2.45m1.14 1.62l1.72 2.46m1.15 1.63l1.73 2.46m1.15 1.64l1.72 2.45m1.14 1.63l1.73 2.46m1.14 1.63l1.73 2.45m1.15 1.64l1.72 2.45m1.15 1.64l1.72 2.45m1.15 1.63l.86 1.23" stroke="#3a414a" fill="none"/><path d="M2341.68-1525.57l-.7.5.02-.63v-.4l-.02-.47z" stroke="#3a414a" stroke-width=".05" fill="#3a414a"/><path d="M2987.66-621.74l1.77 19.92-18.14-8.43M2341.32-1359.62l.98 1.14m1.3 1.53l1.96 2.28m1.3 1.53l1.95 2.28m1.32 1.52l1.95 2.3m1.3 1.5l1.96 2.3m1.3 1.52l1.95 2.3m1.3 1.5l1.96 2.3m1.3 1.52l1.96 2.28m1.3 1.53l1.96 2.3m1.3 1.52l1.95 2.28m1.32 1.52l1.95 2.3m1.3 1.5l1.96 2.3m1.3 1.52l1.95 2.3m1.3 1.5l1.96 2.3m1.3 1.52l1.96 2.28m1.3 1.53l1.95 2.28m1.3 1.53l1.96 2.28m1.3 1.52l1.97 2.3m1.3 1.5l1.95 2.3m1.3 1.52l1.96 2.3m1.3 1.5l1.96 2.3m1.3 1.52l1.95 2.3m1.3 1.5l1.95 2.3m1.3 1.52l1.96 2.28m1.3 1.53l1.96 2.28m1.3 1.52l1.96 2.3m1.3 1.5l1.96 2.3m1.3 1.52l1.95 2.3m1.3 1.5l1.96 2.3m1.3 1.52l1.95 2.27m1.3 1.53l1.95 2.28m1.3 1.53l1.96 2.3m1.3 1.52l1.96 2.28m1.3 1.52l1.95 2.3m1.3 1.5l1.96 2.3m1.3 1.52l1.96 2.3m1.3 1.5l1.94 2.3m1.3 1.52l1.96 2.28m1.3 1.53l1.96 2.28m1.3 1.53l1.95 2.28m1.32 1.53l1.95 2.27m1.3 1.52l1.96 2.28m1.3 1.52l1.95 2.3m1.3 1.5l1.96 2.3m1.3 1.52l1.96 2.3m1.3 1.5l1.95 2.3m1.3 1.52l1.96 2.28m1.3 1.53l1.97 2.28m1.3 1.52l1.95 2.3m1.3 1.5l1.96 2.3m1.3 1.52l1.96 2.3m1.3 1.5l1.95 2.3m1.3 1.52l1.95 2.27m1.3 1.53l1.96 2.28m1.3 1.53l1.96 2.3m1.3 1.5l1.96 2.3m1.3 1.52l1.96 2.3m1.3 1.5l1.95 2.3m1.3 1.52l1.96 2.3m1.3 1.5l1.95 2.3m1.3 1.52l1.95 2.28m1.3 1.53l1.96 2.28m1.3 1.53l1.96 2.28m1.3 1.52l1.95 2.3m1.3 1.5l1.96 2.3m1.3 1.52l1.96 2.3m1.3 1.5l1.94 2.3m1.3 1.52l1.96 2.28m1.3 1.53l1.96 2.28m1.3 1.54l1.95 2.28m1.32 1.53l1.95 2.28m1.3 1.52l1.96 2.3m1.3 1.5l1.95 2.3m1.3 1.52l1.96 2.3m1.3 1.5l1.96 2.3m1.3 1.52l1.95 2.27m1.3 1.53l1.96 2.28m1.3 1.53l1.97 2.3m1.3 1.52l1.95 2.28m1.3 1.52l1.96 2.3m1.3 1.5l1.96 2.3m1.3 1.52l1.95 2.3m1.3 1.5l1.95 2.3m1.3 1.52l1.96 2.28m1.3 1.53l1.96 2.28m1.3 1.53l1.96 2.28m1.3 1.53l1.96 2.27m1.3 1.52l1.96 2.28m1.3 1.52l1.95 2.3m1.3 1.5l1.95 2.3m1.3 1.52l1.96 2.28m1.3 1.53l1.96 2.28m1.3 1.54l1.96 2.28m1.3 1.53l1.96 2.28m1.3 1.52l1.95 2.3m1.3 1.5l1.96 2.3m1.3 1.52l1.95 2.3m1.3 1.5l1.95 2.3m1.3 1.52l1.96 2.27m1.3 1.53l1.96 2.28m1.3 1.53l1.95 2.3m1.3 1.5l1.96 2.3m1.3 1.52l1.96 2.3m1.3 1.5l1.94 2.3m1.3 1.52l1.96 2.3m1.3 1.5l1.96 2.3m1.3 1.52l1.95 2.28m1.32 1.53l1.95 2.28m1.3 1.53l1.96 2.28m1.3 1.52l1.95 2.3m1.3 1.5l1.96 2.3m1.3 1.52l1.96 2.3m1.3 1.5l1.95 2.3m1.3 1.52l1.96 2.28m1.3 1.53l1.97 2.28m1.3 1.54l1.95 2.28m1.3 1.52l1.96 2.3m1.3 1.5l1.96 2.3m1.3 1.52l1.95 2.3m1.3 1.5l1.95 2.3m1.3 1.52l1.96 2.3m1.3 1.5l1.96 2.3m1.3 1.52l1.96 2.28m1.3 1.53l1.96 2.3m1.3 1.5l1.95 2.3m1.3 1.52l1.96 2.3m1.3 1.5l1.95 2.3m1.3 1.52l1.95 2.3m1.3 1.5l1.96 2.3m1.3 1.52l1.96 2.28m1.3 1.53l1.95 2.28m1.3 1.53l1.96 2.28m1.3 1.52l1.96 2.3m1.3 1.5l1.94 2.3m1.3 1.52l1.96 2.3m1.3 1.5l1.96 2.3m1.3 1.52l1.95 2.28m1.32 1.53l1.95 2.28m1.3 1.54l1.96 2.28m1.3 1.52l1.95 2.3m1.3 1.5l1.96 2.3m1.3 1.52l1.96 2.3m1.3 1.5l1.95 2.3m1.3 1.52l1.96 2.28m1.3 1.53l1.97 2.27m1.3 1.53l1.95 2.28m1.3 1.53l1.96 2.3m1.3 1.5l1.96 2.3m1.3 1.52l1.95 2.3m1.3 1.5l1.95 2.3m1.3 1.52l1.96 2.3m1.3 1.5l1.96 2.3m1.3 1.52l1.96 2.28m1.3 1.53l1.96 2.28m1.3 1.52l1.95 2.3m1.3 1.5l1.96 2.3m1.3 1.52l1.95 2.28m1.3 1.52l1.95 2.3m1.3 1.5l1.96 2.3m1.3 1.52l1.96 2.28m1.3 1.53l1.95 2.28m1.3 1.54l1.96 2.28m1.3 1.52l1.96 2.3m1.3 1.5l1.95 2.3m1.3 1.52l1.95 2.3m1.3 1.5l1.96 2.3m1.3 1.52l1.95 2.28m1.32 1.53l1.95 2.27m1.3 1.53l1.96 2.28m1.3 1.53l1.95 2.3m1.3 1.5l1.96 2.3m1.3 1.52l1.96 2.3m1.3 1.5l1.95 2.3m1.3 1.52l1.96 2.3m1.32 1.5l1.95 2.3m1.3 1.52l1.95 2.28m1.3 1.53l1.96 2.28m1.3 1.52l1.96 2.3m1.3 1.5l1.95 2.3m1.3 1.52l1.95 2.28m1.3 1.52l1.96 2.3m1.3 1.5l1.97 2.3m1.3 1.52l1.95 2.28m1.3 1.53l1.96 2.28m1.3 1.54l1.96 2.28m1.3 1.52l1.95 2.3m1.3 1.5l1.95 2.3m1.3 1.52l1.96 2.3m1.3 1.5l1.96 2.3m1.3 1.52l1.96 2.28m1.3 1.53l1.96 2.27m1.3 1.53l1.95 2.28m1.3 1.53l1.96 2.3m1.3 1.5l1.95 2.3m1.3 1.52l1.95 2.3m1.3 1.5l1.96 2.3m1.3 1.52l1.96 2.3m1.3 1.5l1.95 2.3m1.3 1.52l1.96 2.28m1.3 1.53l.98 1.14" stroke="#3a414a" fill="none"/><path d="M2341.7-1359.92l-.72.6.02-.67v-.75z" stroke="#3a414a" stroke-width=".05" fill="#3a414a"/><path d="M2985.7-621.42l3.65 19.66-18.86-6.66M2341.37-1193.95l1.1 1m1.48 1.36l2.2 2.02m1.48 1.35l2.2 2.02m1.48 1.34l2.22 2.02m1.47 1.34l2.2 2.02m1.47 1.35l2.2 2.02m1.48 1.33l2.2 2.02m1.5 1.35l2.2 2.02m1.47 1.34l2.2 2.02m1.48 1.35l2.2 2.02m1.48 1.35l2.2 2m1.48 1.36l2.2 2.02m1.48 1.35l2.2 2.02m1.5 1.34l2.2 2m1.47 1.36l2.22 2.02m1.47 1.34l2.2 2.02m1.47 1.35l2.2 2m1.48 1.35l2.2 2.02m1.48 1.35l2.2 2.02m1.5 1.34l2.2 2.02m1.47 1.35l2.2 2.02m1.48 1.35l2.2 2.02m1.48 1.34l2.2 2.02m1.48 1.35l2.2 2.02m1.48 1.34l2.2 2.03m1.48 1.35l2.2 2.02m1.5 1.34l2.2 2.02m1.47 1.35l2.2 2.03m1.48 1.35l2.2 2m1.48 1.36l2.2 2.02m1.48 1.35l2.22 2.03m1.47 1.34l2.2 2.02m1.47 1.34l2.2 2.02m1.5 1.34l2.2 2.02m1.47 1.35l2.2 2.02m1.48 1.33l2.2 2.02m1.48 1.35l2.2 2.02m1.48 1.35l2.2 2m1.5 1.36l2.2 2.02m1.47 1.35l2.2 2.02m1.48 1.34l2.2 2.02m1.48 1.35l2.22 2.02m1.47 1.34l2.2 2m1.47 1.36l2.2 2.02m1.5 1.34l2.2 2.02m1.47 1.35l2.2 2m1.48 1.36l2.2 2m1.48 1.36l2.2 2.02m1.48 1.35l2.2 2m1.48 1.35l2.2 2.02m1.48 1.35l2.2 2.02m1.5 1.34l2.2 2.02m1.47 1.35l2.22 2.02m1.47 1.34l2.2 2.03m1.47 1.35l2.2 2.02m1.48 1.35l2.2 2m1.48 1.36l2.2 2.03m1.48 1.35l2.22 2m1.48 1.36l2.2 2.02m1.48 1.35l2.2 2.03m1.48 1.34l2.2 2.02m1.48 1.34l2.2 2.02m1.48 1.34l2.2 2.02m1.5 1.35l2.2 2.02m1.47 1.33l2.2 2.02m1.47 1.35l2.2 2.02m1.48 1.35l2.2 2m1.48 1.36l2.2 2.02m1.48 1.35l2.22 2.02m1.47 1.34l2.2 2.02m1.48 1.35l2.2 2.02m1.48 1.34l2.2 2m1.48 1.36l2.2 2.02m1.48 1.35l2.2 2m1.48 1.36l2.2 2m1.48 1.36l2.2 2m1.5 1.36l2.2 2.02m1.47 1.35l2.2 2m1.48 1.35l2.2 2.02m1.48 1.35l2.22 2.02m1.47 1.34l2.2 2.02m1.47 1.35l2.2 2.02m1.5 1.35l2.2 2m1.47 1.36l2.2 2.02m1.48 1.35l2.2 2m1.48 1.36l2.2 2.03m1.48 1.35l2.2 2.02m1.48 1.34l2.2 2.02m1.48 1.35l2.2 2.03m1.5 1.34l2.2 2.02m1.47 1.34l2.22 2.02m1.47 1.34l2.2 2.02m1.47 1.35l2.2 2.02m1.48 1.34l2.2 2m1.48 1.36l2.2 2.02m1.5 1.35l2.2 2.02m1.47 1.33l2.2 2.02m1.48 1.35l2.2 2.02m1.48 1.34l2.2 2.02m1.48 1.35l2.2 2.02m1.48 1.35l2.2 2m1.5 1.36l2.2 2.02m1.47 1.35l2.2 2m1.47 1.36l2.2 2m1.48 1.36l2.2 2.02m1.48 1.34l2.2 2.02m1.48 1.35l2.22 2m1.48 1.35l2.2 2.02m1.48 1.35l2.2 2.02m1.48 1.35l2.2 2m1.48 1.35l2.2 2.02m1.48 1.35l2.2 2m1.48 1.36l2.2 2.02m1.48 1.35l2.2 2.02m1.5 1.34l2.2 2.03m1.47 1.35l2.2 2.02m1.48 1.34l2.2 2.02m1.48 1.35l2.22 2.03m1.47 1.34l2.2 2.02m1.47 1.34l2.2 2.02m1.48 1.35l2.2 2.02m1.5 1.35l2.2 2.02m1.47 1.34l2.2 2.02m1.48 1.34l2.2 2.02m1.48 1.35l2.2 2.02m1.48 1.33l2.2 2.02m1.5 1.35l2.2 2.02m1.47 1.35l2.2 2m1.48 1.36l2.22 2.02m1.47 1.35l2.2 2m1.47 1.36l2.2 2.02m1.48 1.35l2.2 2.02m1.5 1.34l2.2 2m1.47 1.36l2.2 2.02m1.48 1.34l2.2 2.02m1.48 1.35l2.2 2m1.48 1.36l2.2 2m1.48 1.36l2.2 2.02m1.48 1.35l2.2 2m1.5 1.35l2.2 2.02m1.47 1.35l2.2 2.02m1.47 1.34l2.2 2.02m1.48 1.35l2.2 2.02m1.48 1.34l2.2 2.03m1.48 1.35l2.22 2.02m1.47 1.34l2.2 2.02m1.48 1.35l2.2 2.03m1.48 1.35l2.2 2m1.48 1.36l2.2 2.02m1.48 1.35l2.2 2.03m1.48 1.34l2.2 2.02m1.5 1.34l2.2 2.02m1.47 1.34l2.2 2.02m1.48 1.35l2.2 2.02m1.48 1.34l2.2 2m1.48 1.36l2.22 2.02m1.47 1.35l2.2 2m1.47 1.36l2.2 2.02m1.5 1.35l2.2 2.02m1.47 1.34l2.2 2.02m1.48 1.35l2.2 2.02m1.48 1.34l2.2 2m1.48 1.36l2.2 2.02m1.48 1.35l2.2 2m1.5 1.36l2.2 2m1.47 1.36l2.2 2m1.48 1.36l2.22 2.02m1.47 1.35l2.2 2m1.47 1.35l2.2 2.02m1.48 1.35l2.2 2.02m1.5 1.34l2.2 2.02m1.47 1.35l2.2 2.02m1.48 1.34l2.2 2.03m1.48 1.35l2.2 2.02m1.48 1.35l2.2 2m1.48 1.36l2.2 2.03m1.5 1.35l1.1 1" stroke="#3a414a" fill="none"/><path d="M2341.7-1194.3l-.64.7-.08-.06.02-.62v-.66z" stroke="#3a414a" stroke-width=".05" fill="#3a414a"/><path d="M2983.22-620.74l6.04 19.07-19.53-4.3M2341.42-1019.73l1.26.82m1.68 1.07l2.53 1.63m1.67 1.1l2.52 1.62m1.68 1.08l2.52 1.63m1.68 1.1l2.53 1.62m1.7 1.1l2.52 1.62m1.68 1.08l2.52 1.63m1.68 1.1l2.53 1.62m1.68 1.08l2.53 1.63m1.7 1.1l2.5 1.63m1.7 1.1l2.52 1.6m1.68 1.1l2.53 1.63m1.68 1.1l2.52 1.62m1.68 1.08l2.53 1.63m1.68 1.08l2.52 1.63m1.7 1.1l2.5 1.62m1.7 1.1l2.52 1.62m1.67 1.1l2.52 1.62m1.68 1.08l2.52 1.63m1.68 1.1l2.53 1.62m1.7 1.07l2.5 1.63m1.7 1.1l2.52 1.62m1.68 1.08l2.53 1.63m1.68 1.1l2.53 1.62m1.7 1.1l2.5 1.62m1.7 1.08l2.52 1.63m1.68 1.1l2.52 1.62m1.7 1.08l2.5 1.63m1.7 1.1l2.52 1.63m1.68 1.1l2.52 1.62m1.7 1.08l2.5 1.63m1.7 1.1l2.52 1.62m1.67 1.08l2.52 1.63m1.68 1.08l2.52 1.63m1.68 1.1l2.53 1.62m1.7 1.1l2.5 1.62m1.7 1.1l2.52 1.62m1.68 1.08l2.53 1.63m1.68 1.1l2.53 1.62m1.68 1.07l2.54 1.63m1.68 1.1l2.53 1.62m1.68 1.08l2.52 1.63m1.68 1.1l2.53 1.62m1.68 1.1l2.53 1.62m1.68 1.08l2.52 1.63m1.68 1.1l2.53 1.62m1.68 1.08l2.53 1.63m1.67 1.1l2.52 1.63m1.67 1.1l2.53 1.62m1.68 1.08l2.52 1.63m1.7 1.1l2.5 1.62m1.7 1.08l2.52 1.63m1.68 1.08l2.53 1.63m1.68 1.1l2.53 1.62m1.68 1.1l2.54 1.62m1.68 1.1l2.53 1.62m1.68 1.08l2.52 1.63m1.68 1.1l2.53 1.62m1.68 1.07l2.53 1.63m1.68 1.1l2.52 1.62m1.68 1.08l2.53 1.63m1.68 1.1l2.52 1.62m1.7 1.1l2.5 1.62m1.7 1.08l2.52 1.63m1.68 1.1l2.52 1.62m1.7 1.08l2.5 1.63m1.7 1.1l2.52 1.63m1.68 1.1l2.52 1.62m1.7 1.08l2.5 1.63m1.7 1.1l2.52 1.62m1.68 1.08l2.52 1.63m1.7 1.08l2.5 1.63m1.7 1.1l2.52 1.63m1.68 1.08l2.52 1.64m1.7 1.1l2.5 1.62m1.7 1.08l2.52 1.63m1.68 1.1l2.52 1.62m1.7 1.07l2.5 1.63m1.7 1.1l2.52 1.62m1.68 1.1l2.52 1.62m1.7 1.08l2.5 1.63m1.7 1.1l2.52 1.62m1.68 1.08l2.52 1.63m1.7 1.1l2.5 1.62m1.7 1.1l2.52 1.6m1.68 1.1l2.52 1.63m1.7 1.1l2.5 1.62m1.7 1.08l2.52 1.63m1.68 1.1l2.52 1.62m1.68 1.08l2.53 1.63m1.68 1.08l2.53 1.63m1.68 1.1l2.52 1.63m1.68 1.08l2.53 1.64m1.67 1.1l2.53 1.62m1.68 1.08l2.52 1.63m1.68 1.1l2.53 1.62m1.7 1.07l2.52 1.63m1.68 1.1l2.52 1.62m1.7 1.1l2.5 1.62m1.7 1.08l2.52 1.63m1.68 1.1l2.52 1.62m1.68 1.08l2.53 1.63m1.68 1.1l2.53 1.62m1.68 1.1l2.52 1.62m1.68 1.08l2.53 1.63m1.68 1.1l2.53 1.62m1.68 1.08l2.52 1.63m1.68 1.1l2.53 1.62m1.67 1.1l2.53 1.6m1.68 1.1l2.52 1.63m1.68 1.1l2.53 1.63m1.7 1.08l2.5 1.64m1.7 1.1l2.52 1.62m1.68 1.08l2.53 1.63m1.68 1.1l2.53 1.62m1.7 1.07l2.5 1.63m1.7 1.1l2.52 1.62m1.68 1.1l2.52 1.62m1.7 1.08l2.5 1.63m1.7 1.1l2.52 1.62m1.68 1.08l2.52 1.63m1.7 1.1l2.5 1.62m1.7 1.1l2.52 1.62m1.67 1.08l2.52 1.63m1.68 1.1l2.52 1.62m1.68 1.08l2.53 1.63m1.7 1.1l2.5 1.62m1.7 1.1l2.52 1.62m1.68 1.08l2.53 1.63m1.68 1.1l2.53 1.63m1.7 1.08l2.5 1.64m1.7 1.1l2.52 1.62m1.68 1.08l2.52 1.63m1.7 1.1l2.5 1.62m1.7 1.08l2.52 1.63m1.68 1.1l2.52 1.62m1.68 1.1l2.53 1.62m1.68 1.08l2.53 1.63m1.67 1.1l2.52 1.62m1.68 1.1l2.52 1.6m1.68 1.1l2.53 1.63m1.7 1.1l2.5 1.62m1.7 1.08l2.52 1.63m1.68 1.1l2.53 1.62m1.68 1.08l2.53 1.63m1.68 1.1l2.54 1.62m1.68 1.1l2.52 1.62m1.7 1.08l2.5 1.63m1.7 1.1l2.52 1.63m1.68 1.08l2.53 1.64m1.68 1.1l2.52 1.62m1.68 1.08l2.53 1.63m1.68 1.1l2.53 1.62m1.67 1.08l2.52 1.63m1.67 1.1l1.27.8" stroke="#3a414a" fill="none"/><path d="M2341.7-1020.12l-.53.8-.2-.13.03-.54V-1020.56z" stroke="#3a414a" stroke-width=".05" fill="#3a414a"/><path d="M2980.03-619.34l9.13 17.8-19.97-1" stroke="#3a414a" fill="none"/><path d="M2360 20c0 33.14-35.82 60-80 60s-80-26.86-80-60 35.82-60 80-60 80 26.86 80 60z" stroke="#ff80df" stroke-width="2" fill="#4d9eff"/><use xlink:href="#w" transform="matrix(1,0,0,1,2200,-40) translate(47.59577148437499 64.966875)"/><path d="M2800-694a6 6 0 0 1 6-6h228a6 6 0 0 1 6 6v48a6 6 0 0 1-6 6h-228a6 6 0 0 1-6-6z" fill="none"/><use xlink:href="#x" transform="matrix(1,0,0,1,2800,-700) translate(52.4490017361111 38.083767361111114)"/><path d="M2820-374a6 6 0 0 1 6-6h228a6 6 0 0 1 6 6v48a6 6 0 0 1-6 6h-228a6 6 0 0 1-6-6z" fill="none"/><g><use xlink:href="#x" transform="matrix(1,0,0,1,2820,-380) translate(52.4490017361111 38.083767361111114)"/></g><g><path d="M2756-400a6 6 0 0 1-6-6v-228a6 6 0 0 1 6-6h48a6 6 0 0 1 6 6v228a6 6 0 0 1-6 6z" fill="none"/></g><g><use xlink:href="#x" transform="matrix(6.123233995736766e-17,-1,1,6.123233995736766e-17,2750,-400) translate(52.4490017361111 38.083767361111114)"/></g><path d="M2198.5 20.1L1059.5 279.66" stroke="#3a414a" fill="none"/><path d="M2199 20v.5l-.4.08-.2-.93.6-.14z" stroke="#3a414a" stroke-width=".05" fill="#3a414a"/><path d="M1059.5 279.65l-.5.12M2178.7-250.4l-672.3-906.3" stroke="#3a414a" fill="none"/><path d="M2179-250v.4l.02.42-.7-.95.7-.52z" stroke="#3a414a" stroke-width=".05" fill="#3a414a"/><path d="M1506.42-1156.68l-2.1-2.83M2178.8 342.2l-672.48-1498.84" stroke="#3a414a" fill="none"/><path d="M2179 342.65v.42l.03.83-.67-1.5.66-.3z" stroke="#3a414a" stroke-width=".05" fill="#3a414a"/><path d="M1506.33-1156.63l-1.44-3.2" stroke="#3a414a" fill="none"/><defs><path d="M681 22C323 22 94-145 85-462h297c10 151 131 226 296 226 163 0 271-77 271-190 0-102-95-149-257-189l-164-41c-252-61-403-188-403-405 0-269 236-449 560-449 330 0 546 183 551 445H941c-11-119-106-188-259-188-156 0-244 72-244 172-3 156 226 185 373 221 250 61 445 186 445 436 0 271-213 446-575 446" id="y"/><path d="M128 418v-1536h295v188h14c41-89 129-202 319-202 248 0 453 193 453 575 0 372-197 576-455 576-183 0-275-108-317-198h-9v597H128zm534-640c156 0 240-139 240-336 0-196-83-334-240-334-154 0-241 131-241 334 0 202 88 336 241 336" id="z"/><path d="M628 22C291 22 81-210 81-554c0-346 210-578 547-578 336 0 547 232 547 578 0 344-211 576-547 576zm0-236c160 0 242-146 242-341 0-197-82-341-242-341S387-753 387-555c0 195 81 341 241 341" id="A"/><path d="M128 0v-1118h290v195h12c54-169 184-238 367-200v268c-27-8-86-15-130-15-138 0-239 95-239 234V0H128" id="B"/><path d="M683-1118v229H474v562c0 71 29 104 102 104 23 0 73-7 95-13l43 225C647 9 580 16 520 16 296 16 174-96 174-301v-588H20v-229h154v-266h300v266h209" id="C"/><path d="M135 0v-1490h980v253H440v416h609v249H440V0H135" id="D"/><path d="M428-1490V0H128v-1490h300" id="E"/><path d="M361 0L31-1118h315c68 295 127 523 188 845 63-317 128-551 199-845h276c71 296 131 525 196 846 57-321 119-552 186-846h319L1378 0h-305c-73-261-148-486-204-771C813-484 740-261 666 0H361" id="F"/><g id="a"><use transform="matrix(0.014127604166666669,0,0,0.014127604166666669,0,0)" xlink:href="#y"/><use transform="matrix(0.014127604166666669,0,0,0.014127604166666669,18.945117187500003,0)" xlink:href="#z"/><use transform="matrix(0.014127604166666669,0,0,0.014127604166666669,37.18385416666668,0)" xlink:href="#A"/><use transform="matrix(0.014127604166666669,0,0,0.014127604166666669,54.92812500000001,0)" xlink:href="#B"/><use transform="matrix(0.014127604166666669,0,0,0.014127604166666669,67.27565104166668,0)" xlink:href="#C"/><use transform="matrix(0.014127604166666669,0,0,0.014127604166666669,77.9419921875,0)" xlink:href="#D"/><use transform="matrix(0.014127604166666669,0,0,0.014127604166666669,94.92337239583334,0)" xlink:href="#E"/><use transform="matrix(0.014127604166666669,0,0,0.014127604166666669,102.76419270833334,0)" xlink:href="#A"/><use transform="matrix(0.014127604166666669,0,0,0.014127604166666669,120.11289062500002,0)" xlink:href="#F"/></g><path d="M783 20c-382 0-661-292-661-764 0-473 279-766 661-766 302 0 548 182 601 489h-190c-42-204-217-313-411-313-268 0-476 208-476 590 0 381 209 588 476 588 195 0 369-110 411-313h190c-52 303-296 489-601 489" id="G"/><path d="M158 0v-1118h174v172h12c41-113 157-188 290-188 26 0 70 2 91 3v181c-11-2-60-10-108-10-161 0-279 109-279 260V0H158" id="H"/><path d="M628 24c-324 0-524-230-524-574 0-343 198-582 503-582 237 0 487 146 487 559v75H286c9 234 145 362 343 362 132 0 231-58 273-172l174 48C1024-91 857 24 628 24zM287-650h624c-17-190-120-322-304-322-192 0-309 151-320 322" id="I"/><path d="M471 26C259 26 90-98 90-318c0-256 228-303 435-329 202-27 287-16 287-108 0-139-79-219-234-219-161 0-248 86-283 164l-173-57c86-203 278-265 451-265 150 0 419 46 419 395V0H815v-152h-12C765-73 660 26 471 26zm31-159c199 0 310-134 310-271v-155c-30 35-226 55-295 64-131 17-246 59-246 186 0 116 97 176 231 176" id="J"/><path d="M598-1118v154H368v674c0 100 37 144 132 144 23 0 62-6 92-12L629-6c-37 13-88 20-134 20-193 0-307-107-307-290v-688H20v-154h168v-266h180v266h230" id="K"/><g id="b"><use transform="matrix(0.008173828125000001,0,0,0.008173828125000001,0,0)" xlink:href="#G"/><use transform="matrix(0.008173828125000001,0,0,0.008173828125000001,12.228046875000002,0)" xlink:href="#H"/><use transform="matrix(0.008173828125000001,0,0,0.008173828125000001,18.252158203125003,0)" xlink:href="#I"/><use transform="matrix(0.008173828125000001,0,0,0.008173828125000001,28.175185546875007,0)" xlink:href="#J"/><use transform="matrix(0.008173828125000001,0,0,0.008173828125000001,37.57508789062501,0)" xlink:href="#K"/><use transform="matrix(0.008173828125000001,0,0,0.008173828125000001,42.88807617187501,0)" xlink:href="#I"/></g><path d="M763 24c-353 0-583-224-583-531v-983h190v968c0 214 149 370 393 370 243 0 391-156 391-370v-968h190v983c0 307-230 531-581 531" id="L"/><path d="M538 24C308 24 148-78 108-271l171-41c32 123 123 178 257 178 156 0 256-77 256-169 0-77-54-128-164-154l-186-44c-203-48-300-148-300-305 0-192 176-326 414-326 230 0 351 112 402 269l-163 42c-31-80-94-158-238-158-133 0-233 69-233 162 0 83 57 129 188 160l169 40c203 48 298 149 298 302 0 196-179 339-441 339" id="M"/><g id="c"><use transform="matrix(0.008173828125000001,0,0,0.008173828125000001,0,0)" xlink:href="#L"/><use transform="matrix(0.008173828125000001,0,0,0.008173828125000001,12.456914062500001,0)" xlink:href="#M"/><use transform="matrix(0.008173828125000001,0,0,0.008173828125000001,21.292822265625002,0)" xlink:href="#I"/><use transform="matrix(0.008173828125000001,0,0,0.008173828125000001,31.052373046875005,0)" xlink:href="#H"/></g><path d="M180 0v-1490h510c348 0 508 194 508 460 0 198-88 351-276 417L1256 0h-220L726-579c-117 2-238 0-356 1V0H180zm190-747h312c235 0 327-108 327-283 0-177-92-293-329-293H370v576" id="N"/><path d="M577 24c-279 0-473-224-473-580 0-354 195-576 474-576 218 0 287 134 324 193h14v-551h180V0H922v-173h-20C865-111 790 24 577 24zm27-161c203 0 314-172 314-421 0-247-108-413-314-413-212 0-317 181-317 413 0 235 108 421 317 421" id="O"/><g id="d"><use transform="matrix(0.008173828125000001,0,0,0.008173828125000001,0,0)" xlink:href="#N"/><use transform="matrix(0.008173828125000001,0,0,0.008173828125000001,10.527890625000001,0)" xlink:href="#I"/><use transform="matrix(0.008173828125000001,0,0,0.008173828125000001,20.45091796875,0)" xlink:href="#J"/><use transform="matrix(0.008173828125000001,0,0,0.008173828125000001,29.850820312500005,0)" xlink:href="#O"/></g><g id="e"><use transform="matrix(0.010192057291666664,0,0,0.010192057291666664,0,0)" xlink:href="#L"/><use transform="matrix(0.010192057291666664,0,0,0.010192057291666664,15.532695312499996,0)" xlink:href="#M"/><use transform="matrix(0.010192057291666664,0,0,0.010192057291666664,26.55030924479166,0)" xlink:href="#I"/><use transform="matrix(0.010192057291666664,0,0,0.010192057291666664,38.71962565104165,0)" xlink:href="#H"/></g><path d="M338-670V0H158v-1118h173l1 207c72-158 192-221 342-221 226 0 378 139 378 422V0H872v-695c0-172-96-275-252-275-161 0-282 109-282 300" id="P"/><path d="M611 442c-248 0-391-105-460-228l146-94c47 65 117 165 314 165 178 0 307-82 307-266v-224h-17C863-141 792-18 576-18c-268 0-472-195-472-546 0-346 197-568 476-568 216 0 288 133 326 193h17v-179h175V29c0 289-215 413-487 413zm-5-620c203 0 314-146 314-390 0-237-108-403-314-403-213 0-319 180-319 403 0 230 109 390 319 390" id="Q"/><path d="M158 0v-1118h180V0H158zm91-1301c-68 0-125-53-125-119s57-119 125-119c69 0 126 53 126 119s-57 119-126 119" id="R"/><g id="f"><use transform="matrix(0.010192057291666664,0,0,0.010192057291666664,0,0)" xlink:href="#L"/><use transform="matrix(0.010192057291666664,0,0,0.010192057291666664,15.532695312499996,0)" xlink:href="#P"/><use transform="matrix(0.010192057291666664,0,0,0.010192057291666664,27.865084635416657,0)" xlink:href="#H"/><use transform="matrix(0.010192057291666664,0,0,0.010192057291666664,35.376630859374984,0)" xlink:href="#I"/><use transform="matrix(0.010192057291666664,0,0,0.010192057291666664,47.54594726562498,0)" xlink:href="#Q"/><use transform="matrix(0.010192057291666664,0,0,0.010192057291666664,60.34717122395832,0)" xlink:href="#R"/><use transform="matrix(0.010192057291666664,0,0,0.010192057291666664,65.40243164062498,0)" xlink:href="#M"/><use transform="matrix(0.010192057291666664,0,0,0.010192057291666664,76.42004557291665,0)" xlink:href="#K"/><use transform="matrix(0.010192057291666664,0,0,0.010192057291666664,83.24872395833331,0)" xlink:href="#H"/><use transform="matrix(0.010192057291666664,0,0,0.010192057291666664,90.76027018229165,0)" xlink:href="#I"/><use transform="matrix(0.010192057291666664,0,0,0.010192057291666664,102.92958658854164,0)" xlink:href="#O"/></g><g id="g"><use transform="matrix(0.010192057291666664,0,0,0.010192057291666664,0,0)" xlink:href="#L"/><use transform="matrix(0.010192057291666664,0,0,0.010192057291666664,15.532695312499996,0)" xlink:href="#M"/><use transform="matrix(0.010192057291666664,0,0,0.010192057291666664,26.55030924479166,0)" xlink:href="#I"/><use transform="matrix(0.010192057291666664,0,0,0.010192057291666664,38.71962565104165,0)" xlink:href="#H"/></g><g id="h"><use transform="matrix(0.010192057291666664,0,0,0.010192057291666664,0,0)" xlink:href="#N"/><use transform="matrix(0.010192057291666664,0,0,0.010192057291666664,13.127369791666663,0)" xlink:href="#I"/><use transform="matrix(0.010192057291666664,0,0,0.010192057291666664,25.29668619791666,0)" xlink:href="#Q"/><use transform="matrix(0.010192057291666664,0,0,0.010192057291666664,38.09791015624999,0)" xlink:href="#R"/><use transform="matrix(0.010192057291666664,0,0,0.010192057291666664,43.15317057291664,0)" xlink:href="#M"/><use transform="matrix(0.010192057291666664,0,0,0.010192057291666664,54.17078450520832,0)" xlink:href="#K"/><use transform="matrix(0.010192057291666664,0,0,0.010192057291666664,60.99946289062498,0)" xlink:href="#H"/><use transform="matrix(0.010192057291666664,0,0,0.010192057291666664,68.51100911458332,0)" xlink:href="#I"/><use transform="matrix(0.010192057291666664,0,0,0.010192057291666664,80.68032552083332,0)" xlink:href="#O"/></g><path d="M52 0l541-1490h220L1361 0h-200l-149-416H398L254 0H52zm404-582h497c-103-290-145-390-251-756-108 377-145 460-246 756" id="S"/><path d="M158 0v-1118h175l1 205c55-151 181-225 313-225 147 0 245 90 285 228 53-141 190-228 352-228 194 0 352 125 352 384V0h-181v-749c0-161-105-225-225-225-151 0-243 103-243 244V0H807v-767c0-124-93-207-219-207-131 0-250 92-250 270V0H158" id="T"/><g id="i"><use transform="matrix(0.010192057291666664,0,0,0.010192057291666664,0,0)" xlink:href="#S"/><use transform="matrix(0.010192057291666664,0,0,0.010192057291666664,14.401376953124997,0)" xlink:href="#O"/><use transform="matrix(0.010192057291666664,0,0,0.010192057291666664,27.182216796874993,0)" xlink:href="#T"/><use transform="matrix(0.010192057291666664,0,0,0.010192057291666664,45.46676757812499,0)" xlink:href="#R"/><use transform="matrix(0.010192057291666664,0,0,0.010192057291666664,50.52202799479166,0)" xlink:href="#P"/></g><path d="M180 0v-1490h270l367 940c28 72 75 218 110 339 35-117 81-264 110-339l362-940h271V0h-187c2-448-5-837 7-1287-157 497-311 829-483 1287H842C666-458 514-784 354-1284c12 438 5 843 7 1284H180" id="U"/><path d="M677 24c-213 0-288-135-325-197h-20V0H158v-1490h180v551h14c37-59 106-193 324-193 279 0 474 222 474 576 0 356-194 580-473 580zm-27-161c209 0 317-186 317-421 0-232-105-413-317-413-206 0-314 166-314 413 0 249 111 421 314 421" id="V"/><g id="j"><use transform="matrix(0.010192057291666664,0,0,0.010192057291666664,0,0)" xlink:href="#U"/><use transform="matrix(0.010192057291666664,0,0,0.010192057291666664,18.85530598958333,0)" xlink:href="#I"/><use transform="matrix(0.010192057291666664,0,0,0.010192057291666664,31.024622395833326,0)" xlink:href="#T"/><use transform="matrix(0.010192057291666664,0,0,0.010192057291666664,49.30917317708332,0)" xlink:href="#V"/><use transform="matrix(0.010192057291666664,0,0,0.010192057291666664,62.09001302083332,0)" xlink:href="#I"/><use transform="matrix(0.010192057291666664,0,0,0.010192057291666664,74.25932942708332,0)" xlink:href="#H"/></g><path d="M98-1322v-168h1126v168H757V0H567v-1322H98" id="W"/><g id="k"><use transform="matrix(0.010192057291666664,0,0,0.010192057291666664,0,0)" xlink:href="#W"/><use transform="matrix(0.010192057291666664,0,0,0.010192057291666664,12.291621093749994,0)" xlink:href="#H"/><use transform="matrix(0.010192057291666664,0,0,0.010192057291666664,20.149697265624994,0)" xlink:href="#J"/><use transform="matrix(0.010192057291666664,0,0,0.010192057291666664,31.870563151041658,0)" xlink:href="#R"/><use transform="matrix(0.010192057291666664,0,0,0.010192057291666664,36.92582356770832,0)" xlink:href="#P"/><use transform="matrix(0.010192057291666664,0,0,0.010192057291666664,49.258212890624975,0)" xlink:href="#I"/><use transform="matrix(0.010192057291666664,0,0,0.010192057291666664,61.42752929687499,0)" xlink:href="#H"/></g><path d="M158 418v-1536h174v179h20c37-59 106-193 324-193 279 0 474 222 474 576 0 356-194 580-473 580-213 0-288-135-325-197h-14v591H158zm492-555c209 0 317-186 317-421 0-232-105-413-317-413-206 0-314 166-314 413 0 249 111 421 314 421" id="X"/><g id="l"><use transform="matrix(0.008173828125000001,0,0,0.008173828125000001,0,0)" xlink:href="#L"/><use transform="matrix(0.008173828125000001,0,0,0.008173828125000001,12.456914062500001,0)" xlink:href="#X"/><use transform="matrix(0.008173828125000001,0,0,0.008173828125000001,22.70689453125,0)" xlink:href="#O"/><use transform="matrix(0.008173828125000001,0,0,0.008173828125000001,32.956875000000004,0)" xlink:href="#J"/><use transform="matrix(0.008173828125000001,0,0,0.008173828125000001,42.356777343750004,0)" xlink:href="#K"/><use transform="matrix(0.008173828125000001,0,0,0.008173828125000001,47.669765625000004,0)" xlink:href="#I"/></g><path d="M645 0H180v-1490h484c435 0 692 280 692 742 0 466-257 748-711 748zM370-168h263c363 0 539-218 539-580 0-358-176-574-521-574H370v1154" id="Y"/><path d="M338-1490V0H158v-1490h180" id="Z"/><g id="m"><use transform="matrix(0.008173828125000001,0,0,0.008173828125000001,0,0)" xlink:href="#Y"/><use transform="matrix(0.008173828125000001,0,0,0.008173828125000001,12.08091796875,0)" xlink:href="#I"/><use transform="matrix(0.008173828125000001,0,0,0.008173828125000001,21.84046875,0)" xlink:href="#Z"/><use transform="matrix(0.008173828125000001,0,0,0.008173828125000001,25.8946875,0)" xlink:href="#I"/><use transform="matrix(0.008173828125000001,0,0,0.008173828125000001,35.65423828125,0)" xlink:href="#K"/><use transform="matrix(0.008173828125000001,0,0,0.008173828125000001,40.9672265625,0)" xlink:href="#I"/></g><path d="M657 26c-323 0-524-166-541-416h195c15 169 171 246 346 246 202 0 356-106 356-265 5-203-294-238-475-293-239-73-380-191-380-389 0-252 224-419 512-419 294 0 499 171 508 396H992c-17-145-151-228-328-228-193 0-321 102-321 242 0 156 175 211 284 241l149 41c160 44 422 134 422 412 0 244-197 432-541 432" id="aa"/><path d="M613 24c-304 0-509-231-509-576 0-350 205-580 509-580 305 0 511 230 511 580 0 345-206 576-511 576zm0-161c226 0 329-195 329-415 0-222-103-419-329-419-223 0-326 196-326 419 0 220 103 415 326 415" id="ab"/><g id="n"><use transform="matrix(0.008173828125000001,0,0,0.008173828125000001,0,0)" xlink:href="#aa"/><use transform="matrix(0.008173828125000001,0,0,0.008173828125000001,10.740410156250002,0)" xlink:href="#I"/><use transform="matrix(0.008173828125000001,0,0,0.008173828125000001,20.499960937500003,0)" xlink:href="#M"/><use transform="matrix(0.008173828125000001,0,0,0.008173828125000001,29.335869140625004,0)" xlink:href="#M"/><use transform="matrix(0.008173828125000001,0,0,0.008173828125000001,38.17177734375001,0)" xlink:href="#R"/><use transform="matrix(0.008173828125000001,0,0,0.008173828125000001,42.22599609375001,0)" xlink:href="#ab"/><use transform="matrix(0.008173828125000001,0,0,0.008173828125000001,52.26345703125001,0)" xlink:href="#P"/></g><path d="M180 0v-1490h908v168H370v486h669v168H370v500h727V0H180" id="ac"/><g id="o"><use transform="matrix(0.008173828125000001,0,0,0.008173828125000001,0,0)" xlink:href="#ac"/><use transform="matrix(0.008173828125000001,0,0,0.008173828125000001,10.061982421875001,0)" xlink:href="#P"/><use transform="matrix(0.008173828125000001,0,0,0.008173828125000001,19.952314453125002,0)" xlink:href="#H"/><use transform="matrix(0.008173828125000001,0,0,0.008173828125000001,25.97642578125,0)" xlink:href="#ab"/><use transform="matrix(0.008173828125000001,0,0,0.008173828125000001,36.01388671875,0)" xlink:href="#Z"/><use transform="matrix(0.008173828125000001,0,0,0.008173828125000001,40.068105468750005,0)" xlink:href="#Z"/></g><path d="M613 24c-304 0-509-231-509-576 0-350 205-580 509-580 216 0 392 114 453 309l-173 49c-33-115-133-197-280-197-223 0-326 196-326 419 0 220 103 415 326 415 150 0 252-85 285-206l172 49C1010-95 832 24 613 24" id="ad"/><g id="p"><use transform="matrix(0.008173828125000001,0,0,0.008173828125000001,0,0)" xlink:href="#G"/><use transform="matrix(0.008173828125000001,0,0,0.008173828125000001,12.228046875000002,0)" xlink:href="#J"/><use transform="matrix(0.008173828125000001,0,0,0.008173828125000001,21.627949218750004,0)" xlink:href="#P"/><use transform="matrix(0.008173828125000001,0,0,0.008173828125000001,31.518281250000005,0)" xlink:href="#ad"/><use transform="matrix(0.008173828125000001,0,0,0.008173828125000001,41.08166015625001,0)" xlink:href="#I"/><use transform="matrix(0.008173828125000001,0,0,0.008173828125000001,50.84121093750001,0)" xlink:href="#Z"/></g><g id="r"><use transform="matrix(0.008173828125000001,0,0,0.008173828125000001,0,0)" xlink:href="#ac"/><use transform="matrix(0.008173828125000001,0,0,0.008173828125000001,10.061982421875001,0)" xlink:href="#P"/><use transform="matrix(0.008173828125000001,0,0,0.008173828125000001,19.952314453125002,0)" xlink:href="#H"/><use transform="matrix(0.008173828125000001,0,0,0.008173828125000001,25.97642578125,0)" xlink:href="#ab"/><use transform="matrix(0.008173828125000001,0,0,0.008173828125000001,36.01388671875,0)" xlink:href="#Z"/><use transform="matrix(0.008173828125000001,0,0,0.008173828125000001,40.068105468750005,0)" xlink:href="#Z"/><use transform="matrix(0.008173828125000001,0,0,0.008173828125000001,44.122324218750016,0)" xlink:href="#I"/><use transform="matrix(0.008173828125000001,0,0,0.008173828125000001,53.88187500000001,0)" xlink:href="#T"/><use transform="matrix(0.008173828125000001,0,0,0.008173828125000001,68.54572265625,0)" xlink:href="#P"/><use transform="matrix(0.008173828125000001,0,0,0.008173828125000001,78.4360546875,0)" xlink:href="#K"/></g><g id="s"><use transform="matrix(0.008173828125000001,0,0,0.008173828125000001,0,0)" xlink:href="#S"/><use transform="matrix(0.008173828125000001,0,0,0.008173828125000001,11.549619140625001,0)" xlink:href="#ad"/><use transform="matrix(0.008173828125000001,0,0,0.008173828125000001,21.112998046875003,0)" xlink:href="#ad"/><use transform="matrix(0.008173828125000001,0,0,0.008173828125000001,30.676376953125004,0)" xlink:href="#I"/><use transform="matrix(0.008173828125000001,0,0,0.008173828125000001,40.43592773437501,0)" xlink:href="#X"/><use transform="matrix(0.008173828125000001,0,0,0.008173828125000001,50.685908203125,0)" xlink:href="#K"/></g><g id="t"><use transform="matrix(0.008173828125000001,0,0,0.008173828125000001,0,0)" xlink:href="#ac"/><use transform="matrix(0.008173828125000001,0,0,0.008173828125000001,10.061982421875001,0)" xlink:href="#P"/><use transform="matrix(0.008173828125000001,0,0,0.008173828125000001,19.952314453125002,0)" xlink:href="#H"/><use transform="matrix(0.008173828125000001,0,0,0.008173828125000001,25.97642578125,0)" xlink:href="#ab"/><use transform="matrix(0.008173828125000001,0,0,0.008173828125000001,36.01388671875,0)" xlink:href="#Z"/><use transform="matrix(0.008173828125000001,0,0,0.008173828125000001,40.068105468750005,0)" xlink:href="#Z"/><use transform="matrix(0.008173828125000001,0,0,0.008173828125000001,44.122324218750016,0)" xlink:href="#I"/><use transform="matrix(0.008173828125000001,0,0,0.008173828125000001,53.88187500000001,0)" xlink:href="#T"/><use transform="matrix(0.008173828125000001,0,0,0.008173828125000001,68.54572265625,0)" xlink:href="#P"/><use transform="matrix(0.008173828125000001,0,0,0.008173828125000001,78.4360546875,0)" xlink:href="#K"/></g><path d="M180 0v-1490h190v1322h690V0H180" id="ae"/><g id="u"><use transform="matrix(0.008173828125000001,0,0,0.008173828125000001,0,0)" xlink:href="#ae"/><use transform="matrix(0.008173828125000001,0,0,0.008173828125000001,9.465292968750001,0)" xlink:href="#R"/><use transform="matrix(0.008173828125000001,0,0,0.008173828125000001,13.519511718750001,0)" xlink:href="#M"/><use transform="matrix(0.008173828125000001,0,0,0.008173828125000001,22.355419921875004,0)" xlink:href="#K"/></g><path d="M537 14c-226 0-379-139-379-422v-710h180v695c0 172 97 275 253 275 160 0 281-109 281-300v-670h181V0H879v-209C806-46 684 14 537 14" id="af"/><path d="M338-670V0H158v-1490h180v566c73-149 190-208 336-208 226 0 379 139 379 422V0H872v-695c0-172-96-275-252-275-161 0-282 109-282 300" id="ag"/><g id="v"><use transform="matrix(0.008173828125000001,0,0,0.008173828125000001,0,0)" xlink:href="#S"/><use transform="matrix(0.008173828125000001,0,0,0.008173828125000001,11.549619140625001,0)" xlink:href="#af"/><use transform="matrix(0.008173828125000001,0,0,0.008173828125000001,21.448125000000005,0)" xlink:href="#K"/><use transform="matrix(0.008173828125000001,0,0,0.008173828125000001,26.924589843750006,0)" xlink:href="#ag"/><use transform="matrix(0.008173828125000001,0,0,0.008173828125000001,36.823095703125006,0)" xlink:href="#I"/><use transform="matrix(0.008173828125000001,0,0,0.008173828125000001,46.582646484375005,0)" xlink:href="#P"/><use transform="matrix(0.008173828125000001,0,0,0.008173828125000001,56.472978515625,0)" xlink:href="#K"/><use transform="matrix(0.008173828125000001,0,0,0.008173828125000001,61.949443359375,0)" xlink:href="#R"/><use transform="matrix(0.008173828125000001,0,0,0.008173828125000001,66.003662109375,0)" xlink:href="#ad"/><use transform="matrix(0.008173828125000001,0,0,0.008173828125000001,75.73051757812499,0)" xlink:href="#J"/><use transform="matrix(0.008173828125000001,0,0,0.008173828125000001,85.13041992187499,0)" xlink:href="#K"/><use transform="matrix(0.008173828125000001,0,0,0.008173828125000001,90.60688476562498,0)" xlink:href="#R"/><use transform="matrix(0.008173828125000001,0,0,0.008173828125000001,94.66110351562499,0)" xlink:href="#ab"/><use transform="matrix(0.008173828125000001,0,0,0.008173828125000001,104.69856445312499,0)" xlink:href="#P"/></g><g id="w"><use transform="matrix(0.008173828125000001,0,0,0.008173828125000001,0,0)" xlink:href="#N"/><use transform="matrix(0.008173828125000001,0,0,0.008173828125000001,10.527890625000001,0)" xlink:href="#I"/><use transform="matrix(0.008173828125000001,0,0,0.008173828125000001,20.287441406250004,0)" xlink:href="#Q"/><use transform="matrix(0.008173828125000001,0,0,0.008173828125000001,30.553769531250005,0)" xlink:href="#R"/><use transform="matrix(0.008173828125000001,0,0,0.008173828125000001,34.60798828125,0)" xlink:href="#M"/><use transform="matrix(0.008173828125000001,0,0,0.008173828125000001,43.443896484375,0)" xlink:href="#K"/><use transform="matrix(0.008173828125000001,0,0,0.008173828125000001,48.756884765625,0)" xlink:href="#I"/><use transform="matrix(0.008173828125000001,0,0,0.008173828125000001,58.516435546875,0)" xlink:href="#H"/></g><path d="M174-520v-126l944-476v196L406-588v12l712 338v194" id="ah"/><path d="M1181-520L237-44v-194l712-338v-12L237-926v-196l944 476v126" id="ai"/><g id="x"><use transform="matrix(0.010850694444444444,0,0,0.010850694444444444,0,0)" xlink:href="#ah"/><use transform="matrix(0.010850694444444444,0,0,0.010850694444444444,14.702690972222221,0)" xlink:href="#ah"/><use transform="matrix(0.010850694444444444,0,0,0.010850694444444444,29.405381944444443,0)" xlink:href="#R"/><use transform="matrix(0.010850694444444444,0,0,0.010850694444444444,34.787326388888886,0)" xlink:href="#P"/><use transform="matrix(0.010850694444444444,0,0,0.010850694444444444,47.916666666666664,0)" xlink:href="#ad"/><use transform="matrix(0.010850694444444444,0,0,0.010850694444444444,60.611979166666664,0)" xlink:href="#Z"/><use transform="matrix(0.010850694444444444,0,0,0.010850694444444444,65.99392361111111,0)" xlink:href="#af"/><use transform="matrix(0.010850694444444444,0,0,0.010850694444444444,79.13411458333334,0)" xlink:href="#O"/><use transform="matrix(0.010850694444444444,0,0,0.010850694444444444,92.74088541666666,0)" xlink:href="#I"/><use transform="matrix(0.010850694444444444,0,0,0.010850694444444444,105.69661458333334,0)" xlink:href="#ai"/><use transform="matrix(0.010850694444444444,0,0,0.010850694444444444,120.39930555555557,0)" xlink:href="#ai"/></g></defs></g></svg>